<svg xmlns="http://www.w3.org/2000/svg" width="1254mm" height="1254mm" viewBox="0 0 1254 1254" version="1.1">
	<path d="M 877.500 34.482 C 859.656 38.415, 846.255 45.617, 834.203 57.751 C 827.558 64.442, 825.496 65.975, 823.848 65.452 C 815.994 62.959, 804.982 72.342, 800.671 85.201 C 800.178 86.671, 798.820 86.227, 790.644 81.923 C 769.172 70.619, 742.462 64.994, 717.500 66.518 C 708.822 67.048, 706.234 66.800, 697.928 64.642 C 657.201 54.062, 605.947 61.886, 573.175 83.686 C 535.563 108.705, 522.467 149.624, 540.606 185.447 L 543.226 190.621 540.736 195.560 C 536.945 203.081, 530.381 224.361, 528.594 234.926 C 526.186 249.165, 526.548 256.385, 530.664 276.228 C 535.257 298.370, 535.583 297.361, 521.739 303.842 C 507.278 310.612, 501.572 318.013, 501.572 330 C 501.572 340.380, 509.524 352.093, 519.857 356.933 C 524.452 359.085, 524.844 359.532, 524.339 362.056 C 522.414 371.680, 532.249 381.382, 544.934 382.373 C 549.403 382.722, 550.635 383.303, 553.464 386.391 C 555.282 388.376, 557.195 390, 557.714 390 C 558.233 390, 559.701 392.226, 560.975 394.947 L 563.292 399.894 561.146 404.882 C 557.319 413.779, 558.639 420.615, 565.652 428.207 C 568.043 430.796, 570 433.431, 570 434.063 C 570 434.695, 571.369 436.941, 573.042 439.053 C 577.017 444.072, 585.197 448.026, 593.084 448.741 L 599.281 449.303 595.891 451.109 C 594.026 452.102, 590.250 453.672, 587.500 454.597 C 576.218 458.396, 567.319 463.698, 564.845 468.095 C 562.756 471.808, 561.351 472.780, 551.987 476.985 L 541.473 481.706 525.987 481.731 C 507.596 481.761, 497.069 483.199, 461.193 490.585 C 430.144 496.976, 426.505 497.169, 417.228 492.914 C 408.940 489.113, 389.577 481.793, 381.500 479.409 C 373.217 476.963, 360.297 477.156, 352.767 479.838 C 338.298 484.992, 322.249 502.227, 317.094 518.146 C 316.321 520.535, 314.584 522.671, 312.055 524.345 C 303.869 529.762, 299.806 544.880, 303.527 556.080 C 306.983 566.486, 317.865 574, 329.480 574 C 334.220 574, 340.109 576.333, 345.224 580.237 C 347.684 582.115, 352.418 584.415, 355.744 585.348 C 359.071 586.282, 362.330 587.693, 362.987 588.485 C 366.323 592.504, 380.863 595.712, 387.991 594.002 C 392.572 592.903, 393.328 593.010, 398.587 595.498 C 406.208 599.103, 411.751 601, 414.666 601 C 416.534 601, 424.110 604.056, 425.775 605.481 C 425.927 605.611, 422.073 611.068, 417.212 617.609 C 407.597 630.543, 401.237 639.780, 372.182 683 C 347.719 719.388, 351.004 715.553, 346.335 713.171 C 335.640 707.715, 324.690 708.671, 316.860 715.745 C 313.235 719.020, 312.898 719.121, 309.433 717.978 C 307.363 717.295, 302.942 716.976, 299.151 717.236 C 293.384 717.632, 291.769 717.332, 287 714.972 C 268.867 705.999, 253.073 703.938, 240.577 708.914 C 232.544 712.113, 221.080 723.383, 218.674 730.445 C 213.128 746.719, 223.575 771.308, 247.376 798 L 255.847 807.500 252.173 808.167 C 238.038 810.733, 233.057 817.876, 233.022 835.636 C 232.993 850.147, 235.510 855.833, 243.899 860.216 L 249.228 863 423.614 863 L 598 863 598 1012.951 L 598 1162.903 609.250 1185.172 C 617.064 1200.641, 621.362 1208.062, 623.323 1209.471 C 627.080 1212.171, 637.346 1212.314, 641.303 1209.721 C 644.135 1207.866, 659.879 1177.842, 664.635 1165.227 L 667 1158.954 667 1010.977 L 667 863 759.816 863 L 852.633 863 880.566 879.294 C 957.516 924.178, 963.518 927.297, 973 927.316 C 989.316 927.348, 999.712 916.711, 1021.471 877.718 C 1041.850 841.197, 1047.311 823.568, 1042.040 811.315 C 1037.819 801.503, 1037.172 801.142, 940.500 754.754 C 875.636 723.629, 880.676 725.558, 864.124 725.526 L 850.749 725.500 851.299 718.231 C 851.820 711.335, 852.081 710.704, 856.371 705.933 C 865.725 695.528, 867.597 681.654, 861.302 669.381 L 858.163 663.261 859.187 648.381 C 860.396 630.817, 859.640 597.948, 857.511 575.500 C 850.375 500.263, 834.842 454.572, 806.328 424.948 C 799.462 417.815, 797.919 415.603, 797.024 411.607 C 794.657 401.046, 792.410 398.163, 783.826 394.674 C 780.884 393.478, 778.362 392.151, 778.220 391.725 C 778.078 391.299, 782.359 387.623, 787.731 383.556 C 810.297 366.476, 840.994 334.161, 848.960 319.102 C 849.658 317.782, 852.781 313.957, 855.899 310.602 C 883.841 280.531, 895.324 235.486, 884.456 198.580 C 883.659 195.874, 883.162 193.505, 883.351 193.315 C 883.541 193.126, 886.709 193.902, 890.391 195.039 C 894.074 196.177, 897.907 196.847, 898.908 196.529 C 900.419 196.050, 900.824 196.654, 901.283 200.074 C 904.145 221.414, 942.468 207.088, 952.603 180.889 C 954.885 174.991, 955.025 174.888, 959.114 176.143 C 965.140 177.992, 971.407 174.537, 974.575 167.618 C 983.214 148.746, 980.466 126.141, 967.279 107.607 C 964.225 103.314, 964.055 102.781, 965.899 103.263 C 968.867 104.039, 974.573 102.083, 977.059 99.438 C 988.664 87.084, 961.683 62.889, 928.657 56.033 L 923.143 54.888 924.178 51.919 C 926.993 43.844, 922.104 36.866, 912.026 34.574 C 903.634 32.665, 885.955 32.618, 877.500 34.482" stroke="none" fill="#FFFFFF" fill-rule="evenodd"/>
</svg>