<svg xmlns="http://www.w3.org/2000/svg" width="1254mm" height="1254mm" viewBox="0 0 1254 1254" version="1.1">
	<path d="M 896.136 50.067 C 866.904 55.835, 845.695 70.317, 836.084 91.073 C 831.038 101.971, 830.966 101.583, 839.476 109.311 L 846.977 116.121 853.738 109.300 C 860.101 102.881, 870.275 96.566, 875.584 95.740 C 876.638 95.576, 878.031 95.110, 878.681 94.705 C 879.330 94.299, 880.144 94.425, 880.490 94.984 C 880.835 95.543, 880.866 96.056, 880.559 96.125 C 880.252 96.194, 879.663 96.328, 879.250 96.424 C 873.256 97.810, 857.494 109.041, 852.676 115.358 L 849.947 118.936 852.902 124.218 C 854.527 127.123, 856.164 131.187, 856.539 133.249 C 857.029 135.940, 857.966 137.354, 859.861 138.262 C 862.764 139.653, 863.028 140.639, 863.530 152 C 863.713 156.125, 863.893 159.857, 863.931 160.293 C 864.059 161.760, 873.411 171.161, 876.155 172.580 C 878.830 173.963, 882 173.609, 882 171.928 C 882 170.085, 885.828 168.984, 888.589 170.034 L 891.309 171.068 888.501 173.998 C 886.957 175.610, 885.200 176.654, 884.597 176.318 C 883.831 175.891, 883.814 176.050, 884.540 176.843 C 885.111 177.468, 888.936 178.828, 893.040 179.866 C 899.848 181.587, 900.611 181.613, 901.770 180.157 C 905.568 175.389, 905.684 164.174, 901.989 158.985 C 898.494 154.076, 901.541 154.802, 906.447 160.047 C 911.632 165.590, 915.745 173.862, 916.669 180.604 C 917.364 185.670, 917.540 185.783, 920.015 182.750 C 922.365 179.871, 923.635 182.201, 922.024 186.436 C 921.150 188.736, 920.712 189.006, 919.495 187.996 C 917.870 186.647, 917.540 187.155, 916.715 192.275 C 915.382 200.544, 933.367 185.853, 938.820 174.218 C 942.790 165.747, 942.751 151.048, 938.737 142.876 C 935.409 136.102, 929.364 129.035, 923.371 124.911 C 920.944 123.242, 919.206 121.475, 919.509 120.986 C 920.988 118.592, 938.699 129.736, 937.671 132.414 C 937.423 133.062, 938.550 135.147, 940.177 137.046 C 942.260 139.478, 942.655 139.714, 941.513 137.843 C 940.621 136.381, 940.293 134.937, 940.783 134.634 C 942.044 133.855, 949.368 141.595, 948.578 142.873 C 947.776 144.172, 951.716 148.293, 953.001 147.499 C 953.511 147.184, 955.034 149.080, 956.385 151.713 C 960.954 160.621, 961.519 160.969, 962.844 155.704 C 964.243 150.151, 964.306 140.036, 962.978 134.282 C 961.624 128.415, 957.034 119.023, 955.649 119.284 C 955.017 119.403, 954.562 118.717, 954.637 117.761 C 954.712 116.804, 954.366 116.274, 953.867 116.582 C 953.368 116.891, 949.706 114.332, 945.730 110.897 C 941.576 107.308, 935.381 103.207, 931.169 101.257 C 926.018 98.873, 924 97.442, 924.383 96.444 C 924.683 95.663, 924.607 95.131, 924.214 95.262 C 923.821 95.393, 923.402 95.050, 923.282 94.500 C 923.163 93.950, 924.216 93.596, 925.623 93.713 C 927.030 93.829, 931.628 92.764, 935.841 91.345 C 940.433 89.798, 946.801 88.555, 951.743 88.242 L 959.985 87.719 954.243 84.693 C 934.708 74.401, 903.079 70.872, 884.133 76.871 C 876.120 79.409, 872.782 79.820, 872.281 78.331 C 871.778 76.837, 883.810 70.067, 888.246 69.348 C 890.930 68.912, 892.055 67.960, 893.823 64.627 C 895.041 62.332, 898.504 57.866, 901.519 54.703 C 904.533 51.540, 907 48.739, 907 48.476 C 907 47.896, 907.552 47.815, 896.136 50.067 M 648.500 82.030 C 622.509 84.180, 594.771 95.136, 577.276 110.162 C 551.499 132.302, 543.551 167.626, 560.011 186.897 C 561.802 188.994, 562.378 189.149, 564.604 188.134 C 568.965 186.148, 569.003 187.791, 564.759 194.765 C 552.054 215.641, 544.132 244.542, 545.506 265 C 545.894 270.775, 546.461 275.912, 546.766 276.414 C 547.417 277.487, 547.805 280.442, 548.811 292 C 550.080 306.581, 546.487 312.382, 531.737 319.561 C 521.547 324.519, 519 327.210, 519 333.013 C 519 339.573, 525.447 344.752, 535.746 346.467 C 542.701 347.625, 545.566 352.935, 542.879 359.685 C 542.263 361.233, 541.629 363.500, 541.471 364.722 C 540.492 372.261, 568.060 364.471, 590.750 350.797 C 601.549 344.289, 602.275 343.567, 598.899 342.684 C 597.743 342.381, 597.095 341.655, 597.458 341.067 C 599.264 338.147, 610.070 341.730, 613.815 346.492 C 616.232 349.565, 615.744 351.937, 613.151 349.717 C 609.406 346.511, 609.267 346.784, 609.770 356.397 C 611.095 381.715, 598.985 402.718, 579.626 408.679 C 571.616 411.146, 571.309 413.947, 578.452 419.396 C 580.403 420.884, 582 422.776, 582 423.601 C 582 429.427, 588.989 434, 597.892 434 C 612.967 434, 650.381 419.222, 672.157 404.668 C 677.635 401.006, 675.625 404.899, 668.102 412.522 C 660.474 420.252, 660.335 420.482, 661.333 423.732 C 661.893 425.557, 662.609 426.907, 662.925 426.732 C 693.145 410.024, 723.910 400.818, 750.237 400.604 C 761.046 400.516, 762.911 400.273, 762.556 399 C 762.326 398.175, 761.604 394.800, 760.951 391.500 C 760.299 388.200, 758.948 384.348, 757.949 382.939 C 755.588 379.609, 754.551 375.396, 755.889 374.569 C 756.479 374.204, 757.591 375.478, 758.425 377.474 C 760.752 383.043, 762.101 382.845, 772.239 375.445 C 798.125 356.550, 822.515 331.542, 835.090 311 C 836.941 307.975, 840.779 303.225, 843.618 300.445 C 851.379 292.843, 858.852 277.007, 861.337 262.897 C 861.977 259.266, 862.950 256.341, 863.500 256.397 C 864.928 256.544, 864.286 265.939, 862.503 270.992 C 860.463 276.773, 860.680 277.274, 863.174 272.544 C 869.835 259.908, 873.618 239.769, 872.552 222.621 C 871.025 198.036, 859.968 170.562, 847.692 160.845 L 842.500 156.736 841.500 164.118 C 840.222 173.553, 838.685 173.199, 837.833 163.273 C 836.899 152.387, 833.958 145.138, 828.397 140.012 C 825.244 137.105, 823.356 136.046, 822.184 136.525 C 814.133 139.817, 803.457 142.857, 802.680 142.080 C 801.676 141.076, 811.349 135.811, 816.500 134.558 L 819.500 133.828 816.628 132.318 C 808.716 128.159, 791.259 124.481, 776 123.760 C 772.939 123.615, 770.620 123.057, 770.770 122.500 C 771.206 120.886, 797.461 121.578, 805.312 123.410 C 809.059 124.285, 812.321 125, 812.562 125 C 812.803 125, 813 123.548, 813 121.772 C 813 116.477, 799.874 104.662, 788.367 99.598 C 769.221 91.173, 742.820 86.129, 724.231 87.343 C 716.491 87.849, 713.273 87.552, 704.731 85.544 C 687.514 81.496, 668.965 80.336, 648.500 82.030 M 631.668 97.665 C 631.302 98.031, 629.931 98.444, 628.620 98.584 C 624.758 98.996, 611.411 104.672, 603.676 109.192 C 593.976 114.861, 580.748 128.291, 575.253 138.052 C 569.316 148.597, 564.884 167.044, 568.467 166.299 C 568.998 166.189, 570.003 163.588, 570.700 160.519 C 572.235 153.762, 577.604 141.899, 582.103 135.325 C 585.676 130.104, 594.843 120, 596.007 120 C 596.401 120, 600.048 117.811, 604.111 115.135 C 608.175 112.459, 614.200 108.863, 617.500 107.144 C 620.800 105.425, 625.415 102.895, 627.756 101.521 C 630.097 100.147, 632.235 99.018, 632.506 99.011 C 633.137 98.997, 633.295 97.962, 632.750 97.417 C 632.521 97.188, 632.034 97.299, 631.668 97.665 M 655.500 123.590 C 633.789 128.822, 614.771 139.021, 601.606 152.492 C 596.380 157.840, 587 171.384, 587 173.581 C 587 174.310, 585.213 176.342, 583.030 178.096 C 580.846 179.851, 579.295 181.669, 579.584 182.136 C 580.468 183.566, 587.809 179.179, 588.568 176.767 C 589.984 172.267, 596.904 163.346, 604.903 155.709 C 618.077 143.132, 632.443 134.805, 652.647 128.034 C 663.111 124.528, 666.207 122.787, 662.803 122.322 C 662.086 122.224, 658.800 122.795, 655.500 123.590 M 733.638 152.696 C 733.255 153.078, 732.378 153.474, 731.689 153.575 C 731 153.676, 725.276 154.907, 718.968 156.311 C 712.661 157.715, 701.425 159.828, 694 161.007 C 661.114 166.230, 654.991 167.329, 645.579 169.703 C 640.087 171.087, 631.748 173.674, 627.047 175.451 C 619.655 178.245, 617.588 178.620, 611.750 178.224 C 604.837 177.756, 603.882 177.172, 606.489 175.009 C 607.308 174.329, 607.710 173.341, 607.383 172.811 C 607.050 172.272, 605.846 172.719, 604.645 173.827 C 603.465 174.915, 599.487 176.636, 595.804 177.652 C 592.121 178.668, 589.196 179.950, 589.304 180.500 C 589.526 181.631, 596.131 181.281, 599.624 179.953 C 600.892 179.471, 602.158 179.446, 602.437 179.898 C 602.717 180.351, 606.841 181.037, 611.603 181.423 C 620.884 182.176, 634.310 186.145, 644.333 191.098 C 648.991 193.400, 650.571 193.765, 652.169 192.909 C 653.270 192.320, 653.933 191.599, 653.641 191.308 C 652.823 190.490, 638.048 184.035, 633 182.290 C 626.369 179.998, 626.272 179.415, 632.157 177.222 C 639.572 174.459, 645.801 173.313, 666 170.998 C 690.497 168.190, 716.763 162.153, 729.791 156.337 C 731.831 155.426, 733.837 154.640, 734.250 154.590 C 735.078 154.491, 735.405 153.071, 734.750 152.417 C 734.521 152.188, 734.020 152.313, 733.638 152.696 M 867.137 157.029 L 864.796 160.195 868.094 163.597 C 871.881 167.504, 872.606 167.643, 875.918 165.097 L 878.335 163.238 873.906 158.551 L 869.477 153.863 867.137 157.029 M 771.068 187.517 C 753.416 196.482, 730.276 203.256, 711.975 204.816 C 700.803 205.769, 701.370 207.429, 713 207.818 C 729.424 208.369, 745.747 204.646, 761.500 196.755 C 772.392 191.300, 783.234 184.188, 782.492 182.987 C 782.157 182.444, 781.796 182.049, 781.691 182.109 C 781.586 182.170, 776.806 184.603, 771.068 187.517 M 815.634 196.977 C 807.803 208.810, 792.705 223.017, 780.600 229.943 C 774.431 233.472, 773.877 235.908, 779.803 233.446 C 794.216 227.458, 809.711 213.788, 816.303 201.243 C 820.346 193.550, 819.878 190.564, 815.634 196.977 M 844.610 208.083 C 844.360 208.862, 843.372 211.975, 842.415 215 C 839.747 223.437, 833.771 235.772, 828.731 243.247 C 823.071 251.642, 824.228 253.021, 830.416 245.256 C 839.235 234.191, 849.076 210.676, 846.123 207.723 C 845.380 206.980, 844.930 207.086, 844.610 208.083 M 681.496 218.006 C 681.006 218.800, 690.212 225.377, 693.671 226.704 C 696.738 227.881, 694.610 228.638, 689.250 228.278 C 679.872 227.647, 673.927 226.008, 666.275 221.946 C 658.629 217.886, 656.275 218.011, 660.786 222.237 C 668.648 229.603, 679.624 232.449, 696.683 231.545 L 709.994 230.839 714.108 234.361 C 720.861 240.141, 734.736 241.879, 742.847 237.960 C 747.881 235.528, 747.538 233.854, 742.255 235.080 C 732.055 237.449, 720.986 235.819, 715.687 231.167 C 713.973 229.663, 714.082 229.517, 717.687 228.506 C 723.892 226.765, 722.091 225.766, 712.500 225.629 C 704.993 225.521, 702.422 225.030, 697 222.668 C 687.800 218.660, 682.143 216.959, 681.496 218.006 M 575.994 230.934 C 566.968 233.680, 558 241.574, 558 246.774 C 558 250.588, 559.518 254, 561.215 254 C 561.845 254, 565.092 252.238, 568.430 250.085 C 579.734 242.794, 586.153 242.566, 597.702 249.045 C 604.015 252.586, 604.721 251.840, 601.388 245.152 C 595.965 234.269, 585.075 228.172, 575.994 230.934 M 640.333 233.575 C 638.360 238.717, 645.624 248.356, 662.671 263.216 C 664.965 265.215, 666.990 267.897, 667.171 269.176 C 667.352 270.454, 667.950 271.500, 668.500 271.500 C 669.922 271.500, 670.321 266.467, 669.082 264.153 C 668.074 262.269, 668.187 262.252, 672.711 263.614 C 675.750 264.528, 677.722 264.678, 678.358 264.042 C 679.426 262.974, 679.671 263.101, 670.670 260.037 C 660.513 256.580, 647.787 245.429, 644.093 236.750 C 641.923 231.652, 641.279 231.108, 640.333 233.575 M 855.587 235.083 C 855.324 235.862, 854.142 239.875, 852.960 244 C 850.418 252.873, 844.447 266.036, 840.096 272.361 C 838.387 274.844, 837.413 277.137, 837.930 277.457 C 838.976 278.103, 846.594 267.807, 849.845 261.355 C 853.348 254.402, 858.402 236.002, 857.151 234.751 C 856.370 233.970, 855.931 234.063, 855.587 235.083 M 739.489 241.258 C 738.349 244.085, 744.802 252.801, 750 255.455 C 753.082 257.029, 761.257 258.920, 766.155 259.193 C 769.475 259.377, 769.933 259.765, 771.141 263.426 C 773.701 271.184, 784.456 279.297, 789.575 277.333 C 790.661 276.916, 791 277.729, 791 280.745 C 791 287.699, 797.565 294.532, 802.446 292.659 C 804.503 291.870, 803.554 290, 801.096 290 C 797.664 290, 793.122 281.342, 794.416 277.266 C 795.459 273.978, 794.992 273.636, 789.742 273.850 C 782.880 274.129, 778.870 271.651, 775.535 265.069 C 772.268 258.621, 772.308 258.316, 776.677 256.490 C 781.370 254.530, 780.013 252.562, 774.966 254.010 C 761.760 257.797, 748.179 252.705, 741.349 241.404 C 740.271 239.620, 740.153 239.611, 739.489 241.258 M 665.476 244.039 C 664.622 245.421, 668.838 247.613, 677.615 250.350 C 687.163 253.329, 690.440 253.869, 690.663 252.500 C 690.959 250.680, 666.458 242.450, 665.476 244.039 M 714.734 266.030 C 703.287 268.904, 689.970 281.391, 695.022 284.514 C 695.584 284.861, 698.267 283.147, 700.983 280.705 C 707.647 274.713, 712.246 272.673, 720.173 272.190 C 746.554 270.582, 758.617 305.077, 740.685 330.844 C 731.810 343.598, 722.221 349.295, 709.252 349.520 C 699.553 349.687, 698.631 350.197, 703.105 352.917 C 708.343 356.103, 714.195 356.557, 720.805 354.291 C 723.937 353.217, 727.079 352.150, 727.787 351.919 C 728.600 351.654, 729.752 353.469, 730.914 356.842 C 733.049 363.038, 735.159 365.537, 737.497 364.639 C 738.993 364.066, 738.962 363.767, 737.172 361.491 C 736.084 360.108, 734.688 356.845, 734.070 354.238 L 732.947 349.500 739.723 342.466 C 754.675 326.947, 759.866 305.439, 752.984 287.525 C 747.106 272.226, 729.487 262.325, 714.734 266.030 M 574.727 272.763 C 563.798 284.170, 569.902 324.070, 582.200 321.610 C 589.066 320.237, 592.965 313.101, 593.754 300.468 C 595.079 279.231, 583.994 263.090, 574.727 272.763 M 685.716 295.219 C 683.861 299.223, 681.576 303.131, 680.637 303.901 C 678.273 305.842, 673.096 305.511, 671.479 303.314 C 670.211 301.592, 670.108 301.589, 669.460 303.263 C 668.508 305.718, 670.573 307.829, 674.677 308.599 C 681.298 309.841, 684.095 307.223, 688.376 295.775 C 691.802 286.616, 689.887 286.216, 685.716 295.219 M 716.200 289.647 C 711.438 292.030, 706.185 298.639, 704.473 304.402 C 702.792 310.064, 703.858 312.391, 706.374 308.551 C 708.435 305.406, 708.837 305.401, 713.332 308.451 C 715.318 309.798, 717.184 310.511, 717.478 310.035 C 718.210 308.852, 713.163 303, 711.411 303 C 709.524 303, 709.627 302.332, 712.040 298.944 C 715.049 294.718, 719.861 291.653, 724.448 291.041 C 726.677 290.743, 728.500 290.050, 728.500 289.500 C 728.500 287.777, 719.730 287.882, 716.200 289.647 M 806.882 289.046 C 805.631 289.746, 805.450 290.875, 806.004 294.526 C 806.967 300.873, 809.719 304.191, 815.590 306.082 C 818.290 306.952, 820.500 308.189, 820.500 308.832 C 820.500 309.474, 820.837 310, 821.250 310 C 821.663 310, 822.280 310, 822.622 310 C 822.965 310, 822.753 309.407, 822.151 308.682 C 821.344 307.710, 821.459 306.790, 822.586 305.180 C 824.514 302.428, 823.608 300.604, 821.005 301.997 C 814.634 305.407, 807.764 299.246, 809.253 291.458 C 809.810 288.543, 809.090 287.810, 806.882 289.046 M 756.630 367.442 C 754.340 370.937, 748.505 375.131, 746.828 374.487 C 746.039 374.185, 744.592 372.579, 743.611 370.918 C 742.182 368.500, 741.548 368.130, 740.424 369.063 C 738.742 370.459, 741.180 375.464, 744.385 377.196 C 747.483 378.870, 755.735 374.439, 758.080 369.842 C 760.230 365.629, 759.073 363.714, 756.630 367.442 M 580 488.710 C 578.242 489.308, 561.255 496.953, 552.236 501.205 C 546.195 504.053, 545.624 504.134, 536.236 503.478 C 520.139 502.353, 508.671 503.858, 452.012 514.525 C 428.970 518.863, 430.268 519.055, 395.500 506.155 C 367.731 495.851, 357.035 496.928, 342.469 511.494 C 334.463 519.500, 330.990 526.602, 329.928 537.141 C 328.911 547.228, 330.331 551.361, 336.756 557.016 C 343.006 562.518, 343.865 562.203, 341.295 555.351 C 340.110 552.192, 343.153 553.430, 344.501 556.656 C 346.959 562.539, 350.915 567.057, 355.384 569.087 C 361.337 571.790, 363.192 571.636, 362.013 568.535 C 360.311 564.059, 362.599 565.008, 366.078 570.223 C 370.692 577.139, 374.747 579.221, 382.712 578.765 C 390.593 578.315, 390.782 578.062, 387.074 572.943 C 383.609 568.160, 383.151 563.967, 385.486 558.380 C 387.127 554.452, 392.970 546.636, 393.711 547.378 C 393.969 547.636, 395.997 547.207, 398.216 546.424 C 407.665 543.090, 421.094 547.066, 429.702 555.746 L 434.905 560.992 437.564 557.506 C 440.218 554.025, 442.300 553.678, 441.777 556.803 C 441.552 558.143, 444.244 559.153, 456.024 562.152 C 491.072 571.075, 512.789 574.372, 537 574.446 C 559.715 574.516, 574.265 571.358, 607.254 559.198 C 618.344 555.111, 617.793 556.708, 612.669 543.500 C 608.558 532.903, 599.517 515.359, 591.775 502.955 C 584.120 490.690, 581.938 488.050, 580 488.710 M 495 585.277 C 498.575 587.013, 520.584 597.786, 543.909 609.217 C 567.234 620.647, 586.678 630, 587.119 630 C 588.413 630, 590.453 622.050, 589.418 621.039 C 585.703 617.411, 532.894 592.404, 519 587.694 C 509.890 584.605, 497.438 581.979, 492.292 582.060 L 488.500 582.120 495 585.277 M 444.771 609.039 C 442.565 610.879, 442.559 610.934, 444.550 610.967 C 449.312 611.044, 449.111 613.175, 443.846 618.421 C 441.042 621.215, 437.568 625.810, 436.124 628.633 C 434.681 631.456, 428.186 640.816, 421.690 649.432 C 410.544 664.217, 392.552 690.398, 391.307 693.643 C 390.654 695.344, 429.812 734.765, 439.201 741.859 L 444.901 746.167 454.201 738.721 C 470.908 725.343, 480.396 714.201, 489.942 696.749 L 494.182 688.997 515.841 710.096 C 527.754 721.700, 538.724 732.072, 540.220 733.144 L 542.940 735.093 549.856 721.288 C 560.898 699.245, 573.884 669.532, 572.894 668.573 C 572.677 668.363, 566.425 665.277, 559 661.715 C 551.575 658.152, 526.191 645.706, 502.591 634.057 C 444.242 605.254, 447.579 606.698, 444.771 609.039 M 490.947 712.625 C 484.439 722.329, 472.504 734.775, 460.171 744.719 L 450.842 752.242 454.117 755.621 C 458.330 759.967, 458.511 759.945, 468.261 753.850 C 486.276 742.590, 492.205 737.352, 500.743 725.153 L 507.284 715.806 501.757 710.278 L 496.229 704.751 490.947 712.625 M 415.490 780.864 L 410.480 785.684 412.759 787.403 C 415.730 789.644, 418.528 788.757, 423.044 784.145 L 426.589 780.525 423.900 778.262 C 420.556 775.449, 421.384 775.193, 415.490 780.864" stroke="none" fill="#F2B84B" fill-rule="evenodd"/>
</svg>