<svg xmlns="http://www.w3.org/2000/svg" width="1254mm" height="1254mm" viewBox="0 0 1254 1254" version="1.1">
	<path d="M 808.250 103.989 C 804.431 106.318, 804.284 107.045, 807.117 109.595 C 808.281 110.643, 810.312 113.750, 811.631 116.500 C 815.413 124.388, 818.097 127.573, 823.985 131.159 C 832.254 136.195, 835.843 139.746, 839.012 146.023 C 841.171 150.300, 843.126 152.514, 846.863 154.912 C 849.600 156.668, 852.560 159.206, 853.442 160.553 C 855.621 163.878, 856.636 163.634, 858.015 159.454 C 861.578 148.659, 851.959 126.801, 837.208 112.167 C 827.670 102.705, 815.837 99.363, 808.250 103.989 M 599 380.008 C 590.423 384.470, 582 395.229, 582 401.722 C 582 404.006, 582.060 404.020, 585.108 402.444 C 590.358 399.729, 596.999 392.226, 600.193 385.401 C 601.866 381.826, 603.069 378.741, 602.867 378.544 C 602.665 378.348, 600.925 379.006, 599 380.008 M 722.500 420.085 C 714.032 421.314, 700.761 424.029, 699.545 424.781 C 698.981 425.130, 699.555 425.659, 700.819 425.957 C 705.715 427.113, 702.767 428.491, 696.104 428.161 C 676.106 427.170, 660.977 432.708, 616.080 457.456 C 605.559 463.255, 595.949 468, 594.725 468.001 C 591.901 468.002, 580.938 473.154, 579.142 475.324 C 577.955 476.759, 578.379 477.628, 582.502 482.213 C 597.662 499.075, 620.189 541.820, 626 564.750 C 626.592 567.087, 627.461 569, 627.931 569 C 630.430 569, 703.071 533.072, 712.745 527.050 C 720.335 522.326, 719.951 524.851, 711.949 532.286 L 704.500 539.208 722 538.561 C 738.674 537.944, 769.513 535.762, 780.750 534.404 C 786.986 533.650, 786.819 534.521, 783.954 517.733 C 778.197 483.990, 765.304 444.542, 753.645 425 L 750.363 419.500 739.432 419.357 C 733.419 419.278, 725.800 419.605, 722.500 420.085 M 800.485 443.008 C 800.911 444.379, 802.276 447.525, 803.518 450 C 809.653 462.218, 821.743 505.103, 823.614 521.278 C 824.404 528.109, 824.473 528.171, 830.397 527.359 C 836.114 526.575, 836.097 526.864, 831.509 508.178 C 825.907 485.362, 818.580 467.619, 807.831 450.841 C 802.248 442.126, 799.204 438.880, 800.485 443.008 M 640.500 461.152 C 639.400 461.752, 636.625 463.310, 634.334 464.614 L 630.168 466.986 634.975 474.243 C 637.619 478.234, 639.602 481.801, 639.382 482.169 C 639.162 482.537, 636.130 484.433, 632.644 486.382 C 623.277 491.620, 623.160 491.896, 627.513 498.454 C 629.538 501.504, 631.360 504, 631.562 504 C 631.764 504, 635.265 501.975, 639.341 499.500 C 643.418 497.025, 647.146 495.002, 647.627 495.004 C 648.107 495.007, 651.794 501.075, 655.821 508.489 C 659.847 515.903, 663.544 522.218, 664.036 522.522 C 664.944 523.084, 670.967 520.307, 674.355 517.765 C 676.128 516.435, 676.031 516.023, 672.146 508.437 C 669.911 504.071, 666.492 497.740, 664.549 494.366 C 660.568 487.457, 660.197 488.298, 669.750 482.590 C 673.188 480.536, 676 478.319, 676 477.664 C 676 475.167, 668.885 465.852, 667.680 466.771 C 667.031 467.266, 663.493 469.325, 659.818 471.347 L 653.135 475.022 647.943 467.511 C 645.087 463.380, 642.694 460.014, 642.625 460.030 C 642.556 460.047, 641.600 460.552, 640.500 461.152 M 839 595.494 L 834.500 596.595 834.277 625.048 C 834.136 643.019, 833.570 656.294, 832.740 661.084 C 831.486 668.326, 831.529 668.891, 833.700 673.584 C 837.259 681.278, 836.068 690.288, 830.533 697.545 L 827.898 701 831.867 701 C 834.050 701, 836.475 701.245, 837.256 701.545 C 838.920 702.183, 846.411 695.039, 848.683 690.646 C 851.057 686.056, 850.016 678.261, 846.242 672.364 L 843.130 667.500 844.218 644 C 844.916 628.917, 844.982 615.825, 844.403 607.447 L 843.500 594.393 839 595.494 M 778.500 604.059 C 747.746 607.571, 690.353 609.472, 657.924 608.054 C 643.533 607.424, 631.614 607.053, 631.438 607.229 C 631.262 607.405, 632.228 611.490, 633.585 616.307 L 636.052 625.066 633.526 628.377 C 629.227 634.013, 629.811 634.903, 642.250 641.677 C 648.438 645.046, 654.625 648.130, 656 648.531 C 657.375 648.931, 674.700 655.224, 694.500 662.515 C 741.327 679.758, 790.778 695.557, 792.506 693.827 C 792.686 693.647, 793.770 691.121, 794.916 688.213 C 797.524 681.597, 797.542 674.791, 794.968 669.118 C 793.343 665.537, 793.163 664.073, 793.984 661.118 C 795.094 657.122, 795.354 620.402, 794.348 609.750 L 793.711 603 789.605 603.130 C 787.347 603.201, 782.350 603.619, 778.500 604.059 M 358.469 728.872 C 355.186 732.977, 352.353 736.700, 352.174 737.145 C 351.144 739.704, 377.888 768.981, 390.726 779.350 L 397.952 785.187 405.458 778.343 C 409.586 774.579, 412.958 771.275, 412.951 771 C 412.944 770.725, 410.815 768.926, 408.219 767.001 C 400.294 761.125, 382.215 743.091, 373.084 731.954 L 364.438 721.407 358.469 728.872 M 794.465 742.487 C 792.535 745.505, 788.468 753.042, 785.428 759.237 L 779.900 770.500 782.091 772.275 C 783.296 773.251, 788.020 776.086, 792.588 778.576 C 800.872 783.092, 800.895 783.115, 801.541 787.802 C 803.727 803.654, 808.334 814.596, 815.849 821.783 C 822.846 828.475, 863.961 852.495, 865.528 850.806 C 866.628 849.620, 881.587 822.691, 903.748 782 C 908.391 773.475, 913.099 765.014, 914.209 763.197 C 915.320 761.381, 916.064 759.755, 915.864 759.584 C 914.986 758.834, 885.025 744.628, 880.610 742.868 C 868.750 738.141, 860.834 738.479, 834.055 744.857 L 821.610 747.821 810.821 742.410 C 804.888 739.435, 799.570 737, 799.004 737 C 798.438 737, 796.396 739.469, 794.465 742.487 M 967.445 800.250 C 954.176 824.527, 933.582 861.730, 927.221 872.914 C 921.036 883.790, 920.818 884.394, 922.615 885.710 C 925.847 888.077, 962.893 909.057, 966.506 910.567 C 974.537 913.922, 981.641 910.938, 988.847 901.182 C 1000.126 885.913, 1017.812 854.097, 1025.040 836.076 C 1029.833 824.125, 1030.034 818.820, 1025.866 814.324 C 1024.110 812.430, 976.406 788, 974.463 788 C 974.286 788, 971.128 793.513, 967.445 800.250" stroke="none" fill="#D71920" fill-rule="evenodd"/>
</svg>