<svg xmlns="http://www.w3.org/2000/svg" width="1254mm" height="1254mm" viewBox="0 0 1254 1254" version="1.1">
	<path d="M 877.500 39.479 C 858.922 43.567, 843.048 53.292, 832.431 67.090 C 828.068 72.759, 827.772 72.954, 825.711 71.510 C 819.355 67.058, 807.755 75.817, 805.505 86.767 C 804.499 91.664, 800.345 93.546, 796.425 90.881 C 776.866 77.582, 744.813 69.686, 717.986 71.560 C 709.704 72.138, 707.114 71.889, 697.986 69.637 C 633.355 53.694, 563.532 78.839, 543.124 125.407 C 534.521 145.038, 535.712 168.116, 546.210 185.185 L 549.091 189.869 545.668 196.685 C 541.102 205.777, 535.566 223.316, 533.598 234.926 C 531.185 249.162, 531.549 256.692, 535.569 275.659 C 540.692 299.826, 540.479 300.445, 524.456 307.964 C 512.864 313.403, 508.697 317.525, 507.057 325.172 C 504.600 336.626, 511.853 348.403, 524.500 353.494 C 529.758 355.612, 530.441 356.194, 530.021 358.205 C 527.521 370.177, 533.640 377.191, 546.690 377.314 C 552.822 377.371, 553.055 377.472, 555.608 381.155 C 557.049 383.236, 559.087 385.210, 560.135 385.543 C 561.912 386.107, 564.999 391.306, 567.895 398.611 C 569.009 401.422, 568.871 402.099, 566.472 405.611 C 562.332 411.675, 563.236 419.107, 568.705 423.960 C 570.909 425.916, 573.065 428.628, 573.496 429.989 C 577.938 443.983, 597.984 447.977, 621.724 439.598 C 629.125 436.986, 627.325 439.690, 618.265 444.795 C 606.147 451.623, 591.311 459, 589.697 459 C 588.959 459, 584.293 460.977, 579.329 463.393 C 571.336 467.283, 570.126 468.228, 568.757 471.643 C 567.301 475.277, 566.469 475.828, 554.356 481.179 L 541.500 486.857 526 486.807 C 507.586 486.747, 497.468 488.117, 461.193 495.585 C 429.551 502.098, 426.332 502.229, 415.500 497.435 C 370.416 477.484, 356.517 477.406, 336.799 496.989 C 328.258 505.472, 321 517.074, 321 522.242 C 321 523.238, 318.987 525.460, 316.490 527.220 C 305.178 535.194, 303.588 552.770, 313.273 562.777 C 316.657 566.274, 323.857 568.977, 329.932 569.033 C 335.195 569.081, 343.127 572.133, 347.584 575.824 C 349.738 577.609, 353.975 579.748, 357 580.577 C 360.025 581.407, 363.175 582.523, 364 583.057 C 364.825 583.592, 366.839 584.911, 368.475 585.990 C 373.503 589.306, 381.593 590.497, 388 588.865 L 393.500 587.464 401.316 591.327 C 405.615 593.452, 411.465 595.520, 414.316 595.922 C 418.880 596.566, 434 603.182, 434 604.535 C 434 604.815, 432.261 606.947, 430.135 609.272 C 423.830 616.169, 410.506 634.991, 385.861 671.815 C 362.169 707.215, 353.022 720.250, 350.993 721.504 C 350.366 721.892, 348.873 721.315, 347.676 720.222 C 339.084 712.373, 326.657 712.646, 318.637 720.859 L 314.784 724.805 310.294 723.275 C 307.193 722.219, 303.629 721.901, 298.774 722.248 C 292.071 722.728, 291.315 722.548, 282.569 718.406 C 265.864 710.493, 252.569 708.985, 241.760 713.777 C 235.704 716.462, 224.640 727.530, 222.978 732.566 C 217.735 748.452, 233.096 777.760, 260.804 804.736 C 269.184 812.895, 269.248 812.756, 256.921 813.195 C 249.315 813.465, 247.925 813.818, 244.670 816.302 C 238.953 820.663, 238 823.417, 238 835.564 C 238 847.669, 239.638 852.137, 245.344 855.590 C 248.410 857.446, 253.524 857.514, 425.500 858 L 602.500 858.500 603 1011 L 603.500 1163.500 613.714 1183.668 C 619.405 1194.906, 624.927 1204.536, 626.186 1205.418 C 628.971 1207.368, 635.870 1207.480, 638.527 1205.618 C 639.612 1204.858, 645.225 1194.637, 651 1182.905 L 661.500 1161.574 662 1010.037 L 662.500 858.500 758.216 858.245 L 853.932 857.990 880.216 873.339 C 925.127 899.566, 955.736 916.990, 961.680 919.711 C 972.388 924.613, 983.366 922.649, 991.434 914.386 C 1002.781 902.764, 1029.819 854.708, 1037.506 832.500 C 1040.941 822.576, 1039.078 812.108, 1032.847 806.319 C 1029.396 803.113, 900.359 739.986, 882.500 732.767 C 875.724 730.028, 860.693 729.285, 852.229 731.271 C 848.780 732.080, 845.728 732.369, 845.447 731.914 C 845.166 731.459, 845.444 726.005, 846.065 719.794 L 847.194 708.500 851.654 703.732 C 861.661 693.034, 862.897 681.195, 855.302 668.796 C 853.057 665.131, 853.045 664.924, 854.136 648.796 C 857.196 603.585, 850.004 532.727, 838.423 494 C 829.978 465.760, 818.419 444.690, 801.939 427.500 C 793.925 419.140, 793.229 418.078, 792.153 412.571 C 790.361 403.396, 786.544 399.549, 777.242 397.541 C 775.450 397.154, 773.537 396.004, 772.992 394.984 C 770.751 390.797, 771.833 389.285, 783.250 380.664 C 806.914 362.794, 836.801 331.525, 844.960 316.102 C 845.658 314.782, 848.781 310.957, 851.899 307.602 C 880.536 276.783, 890.419 234.908, 878.421 195.221 C 875.443 185.372, 875.727 184.541, 881.279 186.858 C 891.786 191.243, 897.206 192.265, 901.713 190.712 C 906.977 188.897, 907.197 189.140, 906.426 195.948 C 905.615 203.119, 907.767 205.536, 914.869 205.432 C 928.457 205.234, 944.573 190.706, 950.007 173.757 C 952.534 165.876, 953.232 165.179, 955.357 168.422 C 959.225 174.326, 967.407 172.137, 970.771 164.299 C 979.054 144.997, 973.784 120.598, 957.823 104.349 C 952.976 99.414, 952.851 99.150, 954.851 98.080 C 956.285 97.312, 958.738 97.245, 962.691 97.865 C 979.091 100.437, 979.190 88.829, 962.872 76.563 C 950.998 67.637, 937.575 62.160, 922.401 60.050 C 912.634 58.691, 912.161 58.206, 916.498 54.002 C 922.967 47.731, 920.246 41.129, 910.376 39.147 C 902.865 37.638, 885.048 37.818, 877.500 39.479 M 877.021 50.068 C 852.410 56.511, 832.787 75.720, 829.441 96.643 C 828.824 100.503, 828.979 100.810, 833.148 104.004 C 835.542 105.837, 839.786 109.533, 842.580 112.217 L 847.661 117.097 850.441 113.085 C 855.817 105.328, 868.050 97.769, 880.426 94.556 C 887.922 92.610, 888.843 93.243, 881.815 95.511 C 873.475 98.203, 864.488 103.612, 857.505 110.144 C 849.877 117.280, 849.140 118.984, 851.969 122.956 C 854.059 125.891, 855.287 128.994, 856.432 134.232 C 856.795 135.892, 858.195 137.566, 860 138.500 C 861.764 139.412, 862.890 140.739, 862.773 141.768 C 862.665 142.721, 862.942 146.033, 863.388 149.129 C 863.950 153.020, 863.830 155.450, 863 157.001 C 860.670 161.354, 877.015 175.354, 889 179.272 C 899.575 182.728, 900.828 182.597, 903.004 177.800 C 905.669 171.930, 905.545 165.416, 902.662 159.721 C 899.583 153.638, 902.208 154.792, 907.935 162.037 C 913.400 168.950, 916.197 176.811, 916.596 186.380 C 916.778 190.713, 917.124 194.457, 917.366 194.699 C 918.382 195.715, 926.673 190.442, 930.918 186.081 C 951.703 164.728, 942.968 131.568, 913.233 118.944 C 910.062 117.598, 909.490 117.135, 911.500 117.543 C 918.540 118.970, 927.326 124.272, 933.589 130.873 C 937.048 134.518, 940.693 138.286, 941.689 139.247 C 942.685 140.207, 946.679 144.032, 950.565 147.747 C 954.451 151.461, 958.345 155.625, 959.220 157 C 962.271 161.799, 963.500 158.266, 963.500 144.700 C 963.500 132.558, 963.481 132.462, 959.606 124.500 C 952.872 110.667, 939.746 99.853, 923.670 94.895 L 917.500 92.991 923.712 93.541 C 928.053 93.925, 930.763 93.662, 932.712 92.667 C 936.464 90.751, 948.948 88, 953.888 88 C 961.812 88, 959.568 85.120, 946.243 78.187 C 924.582 66.918, 898.108 66.118, 876.949 76.092 C 873.402 77.764, 870.961 78.664, 871.524 78.092 C 873.100 76.492, 887.925 69, 889.517 69 C 890.291 69, 892.698 66.412, 894.865 63.250 C 897.032 60.087, 900.630 55.739, 902.861 53.587 C 905.092 51.436, 906.684 49.298, 906.400 48.837 C 905.370 47.171, 884.795 48.033, 877.021 50.068 M 635 76.546 C 583.299 84.772, 548 115.664, 548 152.684 C 548 164.832, 552.228 177.518, 559.178 186.225 L 561.354 188.951 556.248 198.725 C 549.736 211.193, 546.486 220.958, 543.991 235.552 C 541.337 251.078, 541.442 253.705, 545.510 273.385 C 549.313 291.786, 549.720 297.341, 547.630 302.343 C 545.605 307.190, 538.830 312.441, 530.019 315.993 C 518.751 320.534, 514.963 325.437, 516.968 332.883 C 518.768 339.564, 529.604 347, 537.542 347 C 540.979 347, 541.394 348.735, 539.973 357.161 C 538.778 364.244, 538.800 364.420, 541.127 366.306 C 546.873 370.965, 572.998 362.572, 593.425 349.505 C 600.173 345.188, 600.590 344.527, 597.794 342.568 C 595.641 341.060, 595.761 341, 600.909 341 C 606.826 341, 611.677 343.331, 614.397 347.482 C 616.609 350.859, 616.410 351.315, 613.544 349.437 C 609.813 346.992, 609.099 348.258, 609.696 356.261 C 610.790 370.916, 605.433 388.235, 596.964 397.423 C 591.829 402.994, 587.422 405.796, 579.528 408.509 C 572.255 411.008, 571.278 413.374, 575.911 417.272 C 577.569 418.667, 579.323 419.964, 579.807 420.154 C 580.292 420.344, 581.321 422.485, 582.094 424.911 C 584.360 432.018, 587.299 433.514, 598.830 433.427 C 607.416 433.361, 609.958 432.873, 621.500 429.072 C 637.095 423.936, 655.041 415.561, 668.285 407.237 C 673.628 403.879, 678 401.448, 678 401.836 C 678 402.224, 674.031 406.492, 669.180 411.320 C 661.373 419.092, 660.411 420.439, 660.796 423.062 C 661.448 427.509, 662.104 427.452, 672.187 422.072 C 696.877 408.898, 726.393 400.914, 750.506 400.885 C 756.807 400.877, 762.140 400.562, 762.357 400.185 C 763.329 398.498, 760.106 384.951, 758.137 382.447 C 756.962 380.953, 756 378.981, 756 378.065 C 756 374.760, 754.095 374.204, 749.893 376.283 L 745.886 378.265 742.943 375.446 C 740.023 372.647, 739.146 369.646, 740.928 368.544 C 741.438 368.229, 742.125 368.818, 742.454 369.854 C 744.497 376.291, 749.024 376.050, 755.778 369.145 L 760.323 364.500 757.756 369.206 C 755.587 373.184, 755.407 374.093, 756.595 375.079 C 757.368 375.720, 758 376.795, 758 377.467 C 758 378.937, 761.215 382, 762.757 382 C 764.601 382, 783.834 367.283, 795.679 356.808 C 811.780 342.570, 826.740 325.389, 835.388 311.205 C 837.301 308.067, 841.337 302.958, 844.356 299.851 C 853.957 289.971, 862.846 267.099, 863.100 251.622 C 863.201 245.524, 863.205 245.516, 864.164 249.500 C 864.713 251.779, 864.796 256.296, 864.357 260 C 863.934 263.575, 863.556 266.950, 863.517 267.500 C 863.479 268.050, 863.114 269.031, 862.707 269.681 C 862.300 270.330, 862.425 271.144, 862.984 271.490 C 863.543 271.835, 864.056 271.866, 864.125 271.559 C 864.194 271.252, 864.322 270.663, 864.410 270.250 C 864.499 269.837, 865.057 268.600, 865.652 267.500 C 869.681 260.048, 872.997 242.371, 872.999 228.338 C 873.002 204.339, 863.434 176.530, 850.747 163.668 C 842.959 155.771, 842.526 156.052, 840.184 170.500 C 839.650 173.800, 838.495 178.075, 837.619 180 L 836.026 183.500 836.763 180 C 838.216 173.100, 837.579 155.810, 835.668 150.289 C 833.582 144.259, 823.581 134.019, 821.657 135.943 C 819.848 137.752, 818.010 137.126, 818.262 134.786 C 818.460 132.945, 817.510 132.174, 812.610 130.205 C 802.727 126.232, 794.332 124.890, 775.500 124.272 C 752.869 123.530, 755.879 121.912, 780 121.852 C 794.841 121.816, 800.752 122.428, 811.911 125.155 C 812.726 125.354, 813.580 124.490, 813.930 123.113 C 814.513 120.819, 814.615 120.871, 816.519 124.426 C 817.807 126.833, 820.385 129.207, 823.890 131.217 C 831.873 135.794, 835.795 139.652, 839.080 146.158 C 841.154 150.268, 843.249 152.763, 846.172 154.609 C 848.454 156.049, 851.526 158.547, 852.999 160.160 C 856.910 164.442, 858.540 162.082, 858.377 152.372 C 858.274 146.227, 857.692 143.884, 854.705 137.593 C 841.915 110.662, 821.512 95.903, 808.250 103.989 C 804.284 106.407, 804.284 106.420, 808 110.653 C 813.750 117.202, 810.944 116.155, 803.178 108.854 C 782.991 89.876, 745.453 78.244, 716 81.840 C 709.423 82.643, 707.490 82.469, 700.294 80.423 C 682.159 75.268, 653.667 73.576, 635 76.546 M 817.754 83.744 C 815.928 85.789, 813.646 93.636, 814.346 95.460 C 814.825 96.709, 821.684 98.314, 823.017 97.489 C 823.735 97.045, 820.910 83.577, 819.884 82.551 C 819.574 82.241, 818.616 82.778, 817.754 83.744 M 639.283 96.078 C 614.764 101.228, 594.410 112.622, 582.350 127.947 C 571.091 142.256, 564.553 163.236, 568 174 C 568.639 175.995, 568.821 175.482, 568.900 171.460 C 569.021 165.343, 571.086 157.111, 574.583 148.802 C 584.916 124.252, 609.778 104.947, 641.336 96.969 C 654.130 93.734, 652.927 93.212, 639.283 96.078 M 675.500 120.668 C 641.202 124.882, 617.767 135.493, 599.725 154.980 C 596.219 158.766, 591.860 164.707, 590.037 168.182 C 585.942 175.988, 583.623 178.616, 578.500 181.255 C 573.234 183.968, 575.612 184.717, 581.089 182.071 C 584.133 180.601, 585.681 180.321, 586.592 181.076 C 587.830 182.103, 597.731 180.902, 600.102 179.437 C 600.644 179.102, 601.630 179.258, 602.294 179.783 C 602.957 180.309, 607.469 181.049, 612.319 181.427 C 621.104 182.113, 636.411 186.618, 645.215 191.109 C 649.666 193.380, 649.553 192.948, 646.874 197.488 C 644.463 201.575, 644.712 208.140, 647.379 210.808 C 648.756 212.185, 648.859 211.638, 648.388 205.420 C 647.812 197.804, 650.427 191.183, 653.541 192.377 C 654.343 192.685, 655 192.747, 655 192.515 C 655 191.971, 647.791 188.645, 636.762 184.101 C 631.956 182.120, 628.021 180.050, 628.018 179.500 C 628.015 178.950, 630.960 177.478, 634.563 176.230 C 640.813 174.065, 647.040 173.062, 676.500 169.477 C 694.473 167.290, 714.063 162.243, 733.260 154.855 C 745.746 150.050, 746.795 148.714, 735.208 152.374 C 725.243 155.522, 702.163 160.188, 682.500 163.030 C 659.474 166.357, 644.604 169.646, 632 174.198 C 622.219 177.731, 619.472 178.323, 613.621 178.155 C 604.843 177.904, 604.221 177.442, 607.668 173.736 C 610.541 170.647, 609.726 170.786, 604.744 174.236 C 600.224 177.366, 589.025 180.228, 588.334 178.429 C 586.597 173.903, 604.445 153.512, 618.075 144.450 C 634.583 133.476, 654.756 125.569, 674 122.530 C 679.775 121.618, 685.175 120.728, 686 120.552 C 688.055 120.114, 679.220 120.211, 675.500 120.668 M 787.500 178.179 C 768.210 191.922, 738.678 202.216, 709.500 205.368 L 697.500 206.664 703.445 207.472 C 730.747 211.180, 766.837 198.661, 791 177.101 C 796.903 171.833, 796.028 172.103, 787.500 178.179 M 818.840 191.836 C 811.136 205.866, 794.964 221.800, 779.063 231.029 C 769.321 236.683, 769.264 237.013, 778.641 233.483 C 796.940 226.595, 811.657 212.375, 819.705 193.803 C 824 183.890, 823.646 183.084, 818.840 191.836 M 699.500 197.172 C 693.450 197.658, 684.450 197.844, 679.500 197.585 C 672.573 197.224, 671.191 197.350, 673.500 198.133 C 679.575 200.192, 699.813 200.198, 709.500 198.143 C 719.711 195.977, 717.302 195.744, 699.500 197.172 M 844.308 209.178 C 841.595 220.256, 833.037 238.255, 826.206 247.250 C 820.138 255.241, 820.835 256.251, 827.240 248.750 C 839.192 234.754, 847.848 214.725, 846.802 203.482 C 846.567 200.949, 846.014 202.212, 844.308 209.178 M 681.247 218.909 C 683.858 220.609, 686.309 222, 686.693 222 C 688.322 222, 694.914 227.331, 694.371 228.209 C 692.799 230.752, 673.599 226.580, 665.149 221.859 C 659.451 218.675, 656.876 218.828, 661.015 222.104 C 670.377 229.515, 681.911 232.333, 698.149 231.176 L 709.500 230.367 713.500 233.554 C 718.664 237.667, 723.355 239.125, 731.429 239.125 L 737.949 239.125 741.178 245.183 C 745.756 253.771, 751.512 257.128, 764.459 258.761 C 769.818 259.436, 770.417 259.763, 771.412 262.547 C 774.512 271.225, 782.223 277.586, 788.721 276.825 C 791.217 276.533, 791.468 276.776, 791.184 279.207 C 791.010 280.696, 791.765 283.941, 792.861 286.419 C 795.013 291.283, 797.161 292.414, 803.135 291.829 C 806.105 291.539, 806.464 291.758, 806.196 293.696 C 805.532 298.496, 811.883 306, 816.609 306 C 818.197 306, 819.447 306.964, 820.500 309 C 822.483 312.835, 823.112 312.812, 822.337 308.933 C 821.884 306.672, 822.293 305.095, 823.892 302.933 C 826.464 299.453, 826.212 299.352, 821.652 302.043 C 814.861 306.050, 808.573 301.369, 809.169 292.751 C 809.443 288.803, 809.240 288.093, 808 288.650 C 803.550 290.648, 799.297 290.193, 797.171 287.490 C 794.435 284.012, 793.341 278.284, 794.928 275.743 C 796.467 273.279, 795.741 272.533, 793.151 273.919 C 786.471 277.494, 777.760 272.089, 773.504 261.727 C 772.061 258.214, 772.076 257.915, 773.727 257.370 C 777.017 256.284, 786.128 251.795, 785.770 251.436 C 785.574 251.241, 782.508 252.001, 778.957 253.125 C 763.729 257.946, 750.287 254.746, 743.345 244.647 C 741.510 241.978, 740.209 239.471, 740.453 239.075 C 740.698 238.680, 744.096 237.101, 748.005 235.568 C 755.942 232.454, 756.878 231.330, 749.748 233.475 C 735.254 237.837, 721.266 237.266, 716.611 232.123 C 714.663 229.970, 714.920 229.664, 720.962 226.946 C 724.336 225.429, 724.181 225.400, 714.889 225.806 C 705.660 226.210, 705.036 226.096, 695.427 222.253 C 689.967 220.070, 684.304 217.996, 682.843 217.646 C 681.381 217.295, 679.356 216.741, 678.343 216.414 C 677.329 216.087, 678.636 217.210, 681.247 218.909 M 857.558 224.500 C 855.509 240.793, 847.730 261.388, 838.058 276.130 L 833.879 282.500 837.572 278.500 C 848.187 267.004, 855.919 249.006, 858.067 230.795 C 858.694 225.475, 859.006 220.533, 858.760 219.811 C 858.514 219.090, 857.973 221.200, 857.558 224.500 M 641.170 231.055 C 639.146 240.189, 642.636 245.752, 659.106 259.651 L 666.852 266.188 667.958 272.844 C 668.566 276.505, 669.480 282.425, 669.989 286 C 670.733 291.227, 670.813 289.969, 670.399 279.576 C 670.116 272.467, 669.459 265.857, 668.939 264.886 C 667.455 262.112, 669.062 261.964, 677.417 264.104 C 688.968 267.064, 688.991 265.812, 677.444 262.633 C 666.558 259.636, 660.558 256.210, 652.411 248.339 C 645.296 241.464, 643.776 238.763, 643.042 231.684 L 642.400 225.500 641.170 231.055 M 575.324 231.408 C 564.883 234.752, 557.481 242.093, 558.311 248.281 C 559.154 254.570, 560.110 254.765, 567.697 250.202 C 575.744 245.361, 579.110 244, 583.030 244 C 587.228 244, 594.857 246.806, 599.680 250.124 C 605.084 253.842, 605.251 253.780, 603.055 248.875 C 596.800 234.904, 585.882 228.026, 575.324 231.408 M 713 266.935 C 708.236 268.389, 702.485 271.848, 699.312 275.166 C 697.558 277, 694.802 279.920, 693.187 281.657 C 691.572 283.393, 688.969 288.079, 687.402 292.072 C 681.836 306.259, 672.287 311.089, 670.738 300.500 C 670.426 298.361, 670.257 298.872, 670.150 302.281 C 669.981 307.677, 670.854 308.424, 677.357 308.443 C 682.358 308.458, 683.791 306.648, 688.595 294.254 C 692.859 283.254, 693.656 281.939, 694.587 284.365 C 695.127 285.774, 696.157 285.196, 700.619 280.976 C 719.474 263.143, 744.567 271.945, 749.157 298.002 C 752.314 315.922, 740.046 338.927, 723.096 346.876 C 717.188 349.646, 704.894 350.582, 700.500 348.596 C 698.977 347.907, 699.189 348.432, 701.386 350.792 C 706.444 356.227, 718.087 356.770, 727.021 351.989 C 729.133 350.858, 729.279 351.025, 730.980 356.500 C 734.199 366.861, 740.242 368.156, 746.145 359.752 L 748.429 356.500 744.615 359.807 C 738.987 364.686, 736.968 363.951, 734.435 356.100 L 732.370 349.699 739.043 343.026 C 762.668 319.400, 760.992 281.646, 735.757 269.036 C 729.479 265.899, 719.432 264.972, 713 266.935 M 575.004 272.842 C 565.960 281.887, 568.380 316.313, 578.356 320.507 C 587.543 324.371, 595.010 311.398, 593.669 293.903 C 592.250 275.393, 582.949 264.898, 575.004 272.842 M 716.384 289.913 C 709.880 292.866, 703.996 302.043, 704.004 309.218 L 704.007 312.500 705.989 309.250 C 708.286 305.483, 709.753 305.231, 713.273 308 C 718.385 312.021, 718.500 309.144, 713.413 304.484 L 709.826 301.198 713.477 297.158 C 718.221 291.906, 724.626 289.344, 729.198 290.869 L 732.500 291.971 730.139 289.985 C 727.155 287.476, 721.813 287.448, 716.384 289.913 M 595.500 352.604 C 587.958 357.502, 572.979 364.933, 566.500 366.991 C 560.053 369.038, 559.735 369.642, 562.727 374.163 C 566.100 379.261, 568.212 379.001, 583.500 371.610 C 602.289 362.525, 608.406 355.913, 603.750 349.720 C 602.619 348.215, 601.834 348.490, 595.500 352.604 M 595.661 382.101 C 589.858 385.945, 585.490 391.149, 583.338 396.784 C 578.476 409.515, 593.107 399.685, 600.324 385.372 C 604 378.083, 602.896 377.309, 595.661 382.101 M 725.500 419.659 C 709.750 421.549, 698.361 424.970, 703.137 426.378 C 707.305 427.606, 714.074 430.259, 713.783 430.551 C 713.596 430.737, 711.677 430.491, 709.517 430.004 C 690.307 425.671, 670.912 429.026, 647.500 440.732 C 631.966 448.499, 598 467.192, 598 467.974 C 598 468.386, 596.918 468.516, 595.595 468.263 C 592.782 467.725, 581.915 472.332, 579.375 475.138 C 577.717 476.970, 577.793 477.208, 581.181 480.775 C 596.588 496.999, 622.718 546.083, 625.664 564.336 C 626.004 566.445, 626.813 568.375, 627.461 568.623 C 629.572 569.433, 698.954 535.518, 714.473 526.089 C 718.219 523.813, 721.466 522.132, 721.687 522.354 C 722.448 523.114, 705.490 538.169, 694.786 546.235 C 688.894 550.676, 684.351 554.759, 684.691 555.308 C 686.738 558.622, 800.352 550.853, 801.713 547.306 C 802.508 545.234, 796.196 508.192, 792.443 492.909 C 786.461 468.545, 779.192 448.297, 769.499 428.999 C 765.342 420.721, 764.929 420.250, 761.311 419.652 C 757.407 419.007, 730.894 419.012, 725.500 419.659 M 793.795 434.533 C 793.407 434.924, 794.235 437.503, 795.634 440.264 C 805.865 460.455, 815.031 491.565, 820.944 526.176 C 822.550 535.574, 824.232 543.615, 824.682 544.043 C 825.918 545.221, 837.073 542.972, 837.667 541.426 C 838.355 539.633, 833.596 515.253, 829.905 501.662 C 824.566 482.004, 816.245 463.108, 806.939 449.508 C 800.857 440.619, 794.707 433.613, 793.795 434.533 M 637.250 464.277 C 634.238 465.654, 634.242 465.669, 640.208 475.041 C 646.221 484.489, 646.723 483.222, 634.250 490.071 C 626.377 494.394, 626.279 494.525, 628.517 497.721 L 630.034 499.886 639.506 494.522 L 648.979 489.157 650.739 491.428 C 651.708 492.677, 655.645 499.617, 659.488 506.850 C 666.640 520.308, 667.270 520.986, 670.466 518.648 C 672.380 517.249, 669.743 511.449, 658.008 491.248 L 654.958 485.996 657.974 484.248 C 659.634 483.287, 663.693 480.961, 666.996 479.081 C 673.628 475.304, 673.758 475.094, 671.250 472.207 C 669.513 470.209, 669.436 470.230, 661.103 475.097 C 656.485 477.793, 652.379 480, 651.979 480 C 651.579 480, 648.879 476.386, 645.979 471.968 C 639.874 462.669, 640.179 462.938, 637.250 464.277 M 569 485.867 C 564.325 487.965, 557.350 491.216, 553.500 493.091 L 546.500 496.500 528 496.595 C 506.776 496.704, 500.128 497.595, 461.203 505.551 C 425.813 512.785, 426.196 512.795, 405.651 504.094 C 368.681 488.436, 359.314 488.487, 343.483 504.432 C 335.581 512.391, 331.788 518.762, 329.398 528.090 C 326.106 540.941, 330.073 554.091, 338.792 559.224 C 342.390 561.342, 343.083 560.777, 341.909 556.681 C 340.848 552.985, 340.821 544.311, 341.861 541.670 C 342.269 540.635, 342.610 542.848, 342.645 546.767 C 342.748 557.964, 350.712 569.719, 358.582 570.289 L 361.500 570.500 361.306 563 C 361.132 556.284, 361.199 555.980, 361.951 560.097 C 364.165 572.220, 371.298 579.209, 381.611 579.358 C 388.996 579.464, 390.700 577.784, 387.482 573.566 C 380.342 564.204, 385.962 550.488, 398.563 546.524 C 408.128 543.516, 423.174 548.192, 430.565 556.471 L 434.629 561.024 436.693 558.762 C 437.828 557.518, 439.493 555.150, 440.393 553.500 L 442.029 550.500 441.772 554.461 L 441.514 558.422 447.013 560.096 C 456.275 562.916, 482.801 568.851, 498.558 571.630 C 519.938 575.400, 550.403 575.638, 566 572.156 C 577.778 569.527, 611.261 558.712, 614.800 556.395 C 617.546 554.596, 617.574 554.719, 610.807 538.831 C 603.405 521.449, 589.227 496.937, 579.252 484.275 L 577.500 482.051 569 485.867 M 596.500 574.179 C 581.859 579.035, 561.032 584.109, 553.218 584.722 C 549.213 585.036, 545.707 585.665, 545.426 586.120 C 545.145 586.574, 556.522 592.571, 570.708 599.447 C 584.894 606.323, 602.189 614.877, 609.142 618.457 C 625.098 626.671, 625.252 626.583, 621.654 611.283 C 620.260 605.352, 618.129 595.325, 616.920 589 C 615.035 579.144, 614.283 577.035, 611.664 574.250 C 608.024 570.379, 607.958 570.379, 596.500 574.179 M 834 579.474 C 830.975 580.143, 828.565 581.098, 828.644 581.596 C 831.123 597.145, 831.366 654.713, 828.995 664.746 C 828.148 668.333, 828.303 669.572, 829.996 672.731 C 832.578 677.548, 832.549 684.821, 829.921 692 C 826.831 700.440, 826.807 700.366, 832.912 701.137 C 839.350 701.951, 842.287 700.274, 847.141 693.018 C 851.222 686.917, 850.903 679.815, 846.206 672.181 L 843.014 666.992 844.110 649.246 C 845.162 632.214, 844.664 597.770, 843.173 584.512 C 842.409 577.715, 842.276 577.642, 834 579.474 M 491.589 582.855 C 491.202 583.481, 492.310 584.538, 494.210 585.355 C 499.841 587.779, 552.663 613.316, 569.889 621.943 C 587.878 630.952, 588.996 631.063, 589.339 623.875 L 589.500 620.500 569.500 610.308 C 545.672 598.165, 524.720 589.032, 512.848 585.613 C 502.344 582.588, 492.540 581.316, 491.589 582.855 M 787 586.586 C 753.326 590.462, 733.522 591.389, 681 591.547 L 628.500 591.704 628.748 595.675 C 628.885 597.859, 630.569 605.385, 632.492 612.399 L 635.987 625.151 633.493 628.420 C 629.132 634.138, 629.778 635.020, 644 642.753 C 654.219 648.309, 729.595 676.035, 758 684.685 C 781.558 691.860, 804.092 697.169, 805.616 695.903 C 810.257 692.052, 812.336 677.043, 809.106 670.708 C 807.618 667.790, 807.399 666.190, 808.082 663.247 C 810.260 653.868, 808.305 589.488, 805.744 586.250 C 804.581 584.780, 802.338 584.820, 787 586.586 M 439.813 613.885 C 431.595 622.761, 409.120 654.291, 390.725 682.752 L 386.038 690.004 400.565 705.252 C 415.525 720.953, 434.690 739.046, 441.187 743.600 L 444.875 746.185 453.187 739.884 C 469.425 727.576, 481.578 713.232, 491 695.255 L 494.273 689.010 517.714 712.063 C 530.606 724.742, 541.682 734.959, 542.327 734.768 C 544.189 734.216, 558.489 704.854, 570.114 677.715 L 573.877 668.929 542.188 653.325 C 484.791 625.059, 450.063 608.155, 448.138 607.544 C 446.697 607.087, 444.695 608.612, 439.813 613.885 M 494.625 707.140 C 482.950 724.005, 471.560 736.101, 457.415 746.657 C 436.984 761.906, 421.353 774.604, 412.515 783.133 C 402.529 792.769, 402.508 792.799, 404.407 794.897 C 407.207 797.991, 409.732 797.502, 415.938 792.664 C 423.814 786.524, 436.437 778.225, 459.500 764.025 C 470.500 757.253, 481.300 750.325, 483.500 748.631 C 492.304 741.853, 498.872 735.573, 500.864 732.028 C 503.081 728.083, 502.721 726.178, 500.150 728.259 C 498.298 729.758, 498.677 729.025, 503.818 721.165 L 507.308 715.829 501.783 710.305 L 496.259 704.781 494.625 707.140 M 366.941 717.598 C 363.413 722.494, 358.162 729.294, 355.272 732.709 C 350.575 738.260, 350.123 739.194, 351.009 741.524 C 353.152 747.160, 351.769 754.469, 347.748 758.761 L 345.630 761.023 348.710 764.261 C 352.619 768.372, 356.703 776.516, 358.084 782.955 C 359.855 791.215, 368.631 797.010, 380.500 797.757 L 387.500 798.197 395.456 789.027 C 399.831 783.983, 408.269 775.773, 414.206 770.782 C 420.143 765.792, 425 761.379, 425 760.976 C 425 760.573, 422.413 758.079, 419.250 755.435 C 407.438 745.557, 387.035 725.145, 377.428 713.593 L 373.355 708.697 366.941 717.598 M 506.725 729.686 C 496.334 743.140, 487.643 749.911, 455 769.988 C 421.149 790.808, 411.506 797.868, 412.527 801.084 C 412.823 802.018, 412.400 804.713, 411.587 807.074 C 410.773 809.434, 410.335 811.733, 410.613 812.183 C 411.286 813.271, 602.733 813.241, 603.406 812.152 C 603.695 811.685, 587.977 800.627, 568.479 787.577 C 548.981 774.528, 532.122 762.699, 531.014 761.291 C 528.609 758.234, 528.449 753.814, 530.527 747.922 C 532.043 743.626, 532.033 743.573, 529.277 740.982 C 527.750 739.545, 523.061 735.108, 518.858 731.121 L 511.216 723.871 506.725 729.686 M 796.145 739.543 C 795.045 740.941, 790.919 748.462, 786.976 756.255 L 779.807 770.425 782.045 772.237 C 783.275 773.234, 788.020 776.086, 792.588 778.576 C 800.872 783.092, 800.895 783.115, 801.541 787.802 C 803.722 803.615, 809.193 816.434, 816.401 822.621 C 818.655 824.556, 825.900 829.351, 832.500 833.277 C 876.734 859.588, 879.383 861.046, 880.635 859.764 C 881.787 858.585, 930.558 771.314, 931.639 768.499 C 932.142 767.187, 927.686 764.879, 893.746 748.877 C 869.174 737.291, 867.256 737.148, 835.574 744.531 L 821.561 747.796 810.797 742.398 C 798.328 736.145, 798.753 736.228, 796.145 739.543 M 956.666 782.250 C 955.907 783.487, 950.762 792.825, 945.233 803 C 939.704 813.175, 928.432 833.767, 920.184 848.761 L 905.188 876.022 911.844 879.907 C 941.044 896.951, 966.795 911.059, 969.704 911.604 C 978.814 913.313, 984.684 908.572, 996.452 890 C 1013.149 863.649, 1027.942 833.198, 1028.780 823.454 C 1029.510 814.962, 1028.233 814.025, 991.202 795.884 C 973.368 787.148, 958.612 780, 958.411 780 C 958.210 780, 957.425 781.013, 956.666 782.250" stroke="none" fill="#0A2443" fill-rule="evenodd"/>
</svg>