<?xml version="1.0" standalone="no"?>
<!DOCTYPE svg PUBLIC "-//W3C//DTD SVG 20010904//EN"
 "http://www.w3.org/TR/2001/REC-SVG-20010904/DTD/svg10.dtd">
<svg version="1.0" xmlns="http://www.w3.org/2000/svg"
 width="447.775133pt" height="481.340414pt" viewBox="0 0 447.775133 481.340414"
 preserveAspectRatio="xMidYMid meet">
<metadata>
Created by potrace 1.16, written by Peter Selinger 2001-2019
</metadata>
<g transform="translate(0.000000,481.340414) scale(0.035708,-0.035708)"
fill="#000000" stroke="none">
<path d="M7304 12996 c-88 -41 -130 -113 -122 -211 l4 -53 -35 5 c-20 3 -61
17 -91 31 -68 33 -105 93 -95 155 7 50 -12 49 -60 -4 -74 -82 -94 -177 -55
-254 11 -22 20 -40 20 -40 0 0 -10 -1 -22 -3 -13 -1 -63 -15 -112 -32 -154
-52 -206 -38 -206 53 0 53 -7 57 -38 24 -84 -90 -60 -228 48 -274 l35 -15 -49
-25 c-144 -73 -231 -259 -181 -389 9 -25 22 -43 29 -41 6 2 14 25 18 50 11 83
67 144 157 175 40 14 50 9 29 -15 -63 -72 -83 -210 -42 -288 13 -24 28 -40 39
-40 15 0 19 9 22 53 4 76 53 162 53 94 0 -16 11 -50 25 -76 22 -42 24 -51 13
-90 -10 -37 -8 -54 15 -137 35 -123 35 -152 -3 -196 -34 -38 -40 -99 -15 -143
8 -14 14 -50 15 -81 0 -95 32 -173 125 -313 47 -70 85 -130 85 -132 0 -3 -21
-15 -47 -26 -80 -35 -155 -87 -226 -156 -71 -69 -176 -197 -217 -267 -14 -22
-40 -53 -60 -69 -74 -64 -210 -200 -215 -217 -4 -11 -21 -20 -48 -24 -114 -19
-360 -119 -527 -214 -19 -11 -71 -34 -115 -50 -67 -26 -89 -30 -135 -25 -49 5
-295 -27 -308 -41 -3 -3 -56 22 -118 55 -62 34 -137 69 -167 79 -30 11 -76 35
-103 54 -101 72 -279 147 -348 147 -49 0 -112 -27 -130 -55 -9 -14 -16 -44
-16 -67 l0 -43 -67 -13 c-86 -16 -186 -64 -214 -103 -47 -67 -29 -162 38 -202
l34 -20 -29 -31 c-40 -42 -52 -68 -52 -114 0 -56 34 -102 95 -126 63 -25 60
-23 45 -41 -21 -25 -16 -98 8 -132 42 -59 140 -81 219 -48 45 19 46 19 33 -4
-14 -27 -12 -100 3 -131 15 -30 90 -70 132 -70 46 1 103 31 180 97 118 100
101 95 223 62 161 -44 251 -39 343 19 39 25 58 30 146 35 126 9 200 24 235 48
21 16 44 19 127 19 196 0 436 38 656 105 65 20 119 34 121 32 2 -2 -16 -48
-41 -103 -24 -54 -45 -104 -45 -110 0 -6 -27 -19 -60 -29 -80 -24 -136 -72
-153 -132 -13 -45 -17 -48 -103 -92 -94 -49 -379 -238 -410 -272 -12 -13 -18
-35 -18 -60 1 -38 -1 -41 -77 -94 -44 -31 -125 -94 -182 -141 -148 -124 -526
-484 -544 -518 -20 -38 -12 -110 21 -181 l24 -53 -72 -46 c-119 -75 -182 -125
-216 -172 -34 -48 -78 -159 -104 -269 -15 -59 -23 -73 -49 -90 -25 -16 -38
-37 -59 -95 -15 -41 -27 -84 -27 -94 -1 -11 -21 -51 -45 -90 -58 -94 -97 -173
-145 -293 -45 -113 -101 -286 -101 -310 0 -32 -164 -333 -181 -333 -4 0 -9 10
-13 23 -9 36 -60 84 -101 96 -32 8 -46 7 -80 -8 -78 -35 -96 -128 -40 -213 15
-22 25 -41 23 -43 -2 -1 -83 -48 -181 -105 -121 -69 -197 -107 -238 -116 -212
-50 -334 -143 -355 -271 -8 -52 11 -118 41 -141 14 -11 25 -30 25 -41 0 -66
116 -98 164 -46 26 28 56 25 56 -5 0 -27 48 -60 87 -60 25 0 43 8 65 30 31 32
58 39 58 17 0 -20 32 -46 66 -53 39 -8 100 18 109 45 6 18 14 21 70 21 62 0
64 0 70 -30 12 -55 98 -79 147 -41 24 19 25 19 41 1 35 -41 102 -38 143 7 17
19 24 22 24 10 0 -26 49 -57 92 -57 29 0 44 6 61 25 12 14 39 42 61 63 74 72
108 178 106 330 -1 72 3 108 15 137 12 28 16 55 12 92 -5 51 -4 55 41 110 116
144 197 229 270 283 97 73 246 228 291 304 19 32 48 92 65 135 l32 77 41 -26
c23 -15 59 -49 81 -76 55 -69 160 -165 273 -250 109 -80 350 -229 401 -246 35
-12 109 -68 251 -193 l87 -77 0 -50 c0 -62 22 -111 67 -146 18 -15 33 -32 33
-38 0 -6 18 -54 39 -107 22 -54 36 -97 32 -97 -4 0 -67 28 -141 61 -74 34
-184 83 -245 110 -164 71 -164 63 -5 -113 66 -73 120 -136 120 -139 0 -9 -30
-14 -190 -34 -135 -18 -174 -31 -148 -52 7 -5 81 -33 163 -61 150 -50 317
-110 322 -116 2 -2 -30 -15 -71 -30 -77 -28 -102 -46 -93 -68 5 -15 446 -98
519 -98 26 0 50 -5 53 -10 11 -18 79 -48 126 -55 33 -5 61 -1 107 14 47 16 86
21 171 21 103 0 109 -1 114 -21 5 -20 10 -22 66 -16 34 4 78 14 98 23 30 13
65 16 166 15 113 -2 128 -1 134 15 5 13 -5 28 -37 56 -41 37 -42 39 -21 45 18
4 21 11 17 29 -5 19 2 28 39 54 27 19 45 39 45 50 0 24 -33 46 -83 56 l-39 7
38 38 c63 64 25 86 -94 55 -60 -15 -59 -18 -33 77 15 57 16 69 5 74 -16 6 -93
-48 -144 -101 l-34 -37 -23 51 c-19 43 -25 50 -40 41 -10 -5 -36 -43 -58 -84
-38 -73 -40 -74 -62 -60 -18 12 -21 19 -13 33 6 10 10 37 10 59 0 45 -39 101
-70 101 -26 0 -35 48 -35 175 0 117 9 160 31 151 25 -10 71 21 83 55 16 47 13
83 -9 112 -27 34 -25 42 11 58 64 26 74 126 18 173 -16 14 -29 32 -29 41 0 60
-66 134 -160 179 -60 28 -75 31 -180 34 -63 1 -139 5 -168 10 -51 7 -55 9
-117 87 -36 44 -74 98 -85 121 -11 22 -33 53 -50 69 -16 16 -41 59 -56 99 -92
244 -228 427 -399 535 -36 24 -43 30 -23 26 17 -4 39 -1 59 9 l32 16 62 -50
c81 -65 143 -100 177 -100 26 0 243 87 348 140 42 21 80 30 165 39 180 20 330
64 474 142 80 43 121 72 221 159 l65 56 55 -9 c69 -11 148 -3 192 17 19 9 47
38 66 65 86 133 218 418 286 621 20 60 45 113 60 129 33 34 52 82 66 164 11
62 16 71 72 129 123 128 277 339 423 583 52 87 201 377 228 443 l16 41 52 -15
c29 -9 99 -36 156 -60 135 -58 151 -61 199 -36 l39 20 58 -30 c242 -122 500
-203 717 -224 63 -6 79 -11 100 -34 43 -46 249 -89 385 -80 11 1 47 -8 80 -20
51 -19 74 -21 155 -17 155 8 311 77 447 201 77 70 128 89 255 96 122 6 150 19
182 84 16 32 17 44 7 75 -6 21 -20 46 -31 56 -19 17 -19 18 13 39 67 45 81
122 34 183 -18 22 -21 38 -19 79 2 29 -1 62 -8 74 -16 30 -69 60 -107 60 -28
0 -33 4 -33 24 0 71 -53 116 -135 116 -109 -1 -248 -73 -392 -205 l-72 -65
-37 25 c-73 50 -148 23 -252 -91 l-67 -74 -88 36 c-48 19 -109 39 -135 43 -32
5 -66 21 -103 48 -91 67 -270 183 -330 213 -30 16 -80 36 -110 45 -98 30 -124
45 -144 81 -13 24 -35 42 -74 60 -30 15 -118 75 -196 134 -234 179 -428 297
-545 331 -25 7 -63 24 -84 37 -63 39 -198 102 -243 113 -38 10 -43 16 -63 64
-24 60 -47 79 -114 96 -59 15 -65 36 -36 130 l21 71 17 -33 c9 -19 25 -35 35
-37 14 -3 17 4 17 42 0 62 27 128 82 203 59 80 86 136 100 209 7 33 13 61 15
63 2 3 21 -12 42 -33 22 -21 44 -35 50 -32 21 13 8 83 -34 180 -7 15 -1 14 34
-9 59 -37 74 -29 57 29 -7 24 -27 69 -43 99 l-30 55 61 5 c34 2 73 10 89 17
29 14 38 50 12 50 -27 0 -113 49 -149 84 -19 19 -49 62 -66 95 -18 33 -48 79
-68 102 l-36 42 44 -6 c25 -4 57 -9 73 -13 20 -5 27 -3 27 9 0 49 -128 130
-223 142 l-53 7 10 48 c7 34 6 64 -3 103 -13 59 -64 141 -84 134 -8 -2 -13
-34 -15 -90 -1 -48 -7 -87 -12 -87 -6 0 -10 8 -10 18 0 11 -14 48 -32 83 -42
84 -129 171 -210 209 -57 27 -118 39 -118 24 0 -4 18 -33 40 -66 22 -33 40
-64 40 -69 0 -5 -24 3 -52 17 -134 68 -312 90 -482 60 -85 -15 -89 -15 -128 5
-26 13 -44 32 -54 54 -19 46 -18 61 7 113 28 57 16 67 -47 38z m-100 -931 c34
-20 147 -65 163 -65 10 0 1 29 -13 41 -19 16 -67 109 -57 109 5 0 13 -8 20
-19 15 -24 136 -103 191 -125 24 -9 70 -19 102 -23 55 -5 59 -8 65 -34 9 -38
69 -118 115 -153 44 -33 60 -87 60 -206 l0 -78 36 -7 c20 -3 37 -5 39 -3 1 2
10 18 19 35 9 18 20 32 25 30 5 -1 24 20 42 47 84 123 221 115 264 -15 59
-176 -137 -440 -289 -389 -44 14 -52 10 -59 -37 -4 -21 -22 -70 -40 -108 -44
-92 -103 -144 -211 -187 -80 -32 -83 -32 -316 -39 -143 -5 -259 -13 -297 -22
l-63 -15 -33 47 c-133 187 -187 291 -187 362 0 29 2 31 26 25 28 -7 64 0 64
14 0 4 -24 22 -53 38 -61 34 -86 76 -68 110 6 11 33 36 60 56 28 21 60 53 72
73 l22 36 -24 95 c-15 59 -26 87 -29 74 -5 -19 -8 -18 -44 15 -38 35 -38 37
-32 89 9 81 51 201 88 255 18 27 36 49 40 49 4 0 14 -13 22 -29 30 -57 161
-149 182 -128 2 2 -5 24 -16 48 -12 28 -20 66 -20 103 l0 58 46 -51 c26 -28
65 -63 88 -76z m-373 -430 c26 -24 45 -47 41 -49 -4 -2 -22 -3 -41 -1 -32 2
-35 6 -46 49 -7 25 -10 46 -7 46 3 0 26 -20 53 -45z m1294 -522 c11 -46 25
-56 46 -37 18 16 19 16 19 -3 0 -10 7 -28 15 -39 15 -19 15 -19 35 4 l19 23
12 -45 c6 -25 11 -48 10 -50 -1 -3 -65 -8 -144 -11 -78 -2 -162 -9 -187 -14
-25 -5 -46 -8 -48 -6 -2 1 8 20 22 40 14 21 35 64 47 96 l21 58 52 4 c28 2 56
4 62 5 7 1 15 -10 19 -25z m260 -254 c41 -12 53 -20 67 -49 31 -63 29 -64 -79
-56 -54 4 -186 18 -293 32 -107 13 -214 24 -237 24 -23 0 -44 4 -47 8 -5 8 80
33 179 51 69 14 349 6 410 -10z m-568 -84 c89 -8 192 -19 230 -24 126 -18 365
-41 423 -41 106 0 355 -118 418 -197 113 -144 147 -382 90 -629 -109 -468
-560 -1254 -880 -1534 -40 -36 -86 -75 -102 -88 -16 -12 -27 -24 -25 -26 2 -3
29 4 59 15 30 10 57 19 61 19 8 0 -3 -51 -19 -91 -6 -15 -23 -42 -39 -60 -16
-19 -34 -52 -42 -74 -60 -184 -146 -390 -217 -520 -84 -153 -73 -146 -141 -94
-32 25 -132 96 -223 159 -201 139 -270 190 -520 389 -362 288 -596 425 -848
495 -87 25 -234 49 -275 45 -43 -3 -41 2 18 41 155 105 285 176 373 205 91 30
107 45 50 45 -32 0 -34 7 -14 55 18 42 46 57 187 96 63 17 118 34 122 39 5 4
-14 11 -42 15 -28 4 -51 10 -51 13 0 4 30 71 67 149 l66 142 88 36 c95 40 231
118 292 166 21 17 40 29 43 26 7 -6 -50 -162 -111 -304 -30 -70 -53 -128 -51
-131 13 -12 158 291 198 414 l21 66 36 -6 c113 -17 144 -19 137 -7 -4 6 -14
11 -22 11 -8 0 -29 7 -46 16 -40 21 -28 29 77 49 75 14 193 60 183 71 -3 3
-25 0 -49 -5 -68 -15 -109 -21 -109 -15 0 2 16 18 35 35 74 66 149 190 190
319 89 279 -6 559 -225 664 l-65 31 75 9 c47 5 141 5 250 -2 165 -10 213 -9
162 5 -23 6 -30 23 -9 23 6 0 85 -7 174 -15z m-614 -78 c104 -49 178 -136 218
-255 32 -96 32 -248 0 -352 -30 -100 -73 -182 -132 -256 -45 -57 -143 -133
-155 -121 -3 2 19 41 49 84 49 72 85 148 75 158 -2 2 -35 -35 -73 -82 -118
-144 -334 -321 -488 -400 -48 -24 -50 -24 -44 -4 6 24 11 27 -97 -46 -99 -66
-199 -105 -393 -154 -154 -38 -315 -62 -495 -74 -111 -8 -105 -13 -87 77 22
110 -31 280 -113 365 l-31 32 27 11 c64 24 132 52 146 61 166 97 298 155 432
190 68 18 100 20 183 16 55 -3 111 -8 125 -12 49 -13 -10 24 -67 42 -29 9 -53
19 -53 22 0 3 35 17 77 31 75 24 76 25 42 32 -19 4 -44 5 -56 3 -13 -3 -23 -1
-23 4 0 10 185 180 224 206 14 9 22 23 19 30 -6 16 17 51 101 154 186 226 415
319 589 238z m1887 -244 c86 -49 259 -172 429 -305 35 -28 79 -55 98 -60 28
-7 38 -18 50 -48 11 -27 23 -40 42 -45 14 -3 43 -20 65 -37 28 -23 40 -27 46
-18 22 36 216 -74 498 -282 117 -86 136 -121 130 -237 -4 -88 -29 -148 -85
-206 l-37 -38 -112 6 c-139 8 -284 37 -435 87 -122 40 -339 137 -339 151 0 5
14 19 31 31 74 55 173 221 204 346 26 100 14 119 -18 31 -65 -176 -198 -333
-349 -410 l-37 -19 -118 50 c-65 28 -126 54 -135 60 -10 5 -23 10 -30 10 -7 0
-19 4 -27 9 -10 7 -2 24 38 76 54 70 104 160 99 176 -2 5 -21 -15 -43 -46 -42
-58 -62 -70 -51 -32 39 135 50 219 50 372 -1 201 -14 257 -102 439 -8 16 43
-7 138 -61z m2418 -502 c8 -4 12 -19 10 -31 -2 -18 -22 -33 -84 -64 -72 -37
-97 -53 -178 -118 -42 -34 -7 -28 66 12 132 71 297 101 338 60 24 -24 24 -29
4 -58 -9 -13 -26 -22 -41 -22 -65 0 -217 -57 -278 -104 -27 -21 -19 -20 82 10
119 36 243 39 274 7 26 -26 21 -61 -13 -82 -12 -7 -56 -17 -96 -22 -87 -10
-186 -41 -222 -69 l-25 -20 65 6 c36 3 71 7 78 10 19 6 109 -14 148 -32 41
-20 55 -57 30 -82 -12 -13 -43 -19 -119 -23 -131 -8 -199 -33 -278 -104 -144
-129 -290 -195 -429 -195 -53 0 -130 15 -130 26 0 3 13 22 30 42 48 60 73 129
78 213 6 96 -14 167 -67 235 l-39 51 64 66 c70 71 112 93 139 73 15 -11 10
-19 -51 -74 -38 -34 -63 -62 -55 -62 23 0 265 120 281 139 62 76 219 187 299
211 35 11 103 12 119 1z m-7092 -43 c45 -19 115 -57 155 -84 41 -26 95 -56
122 -65 26 -10 111 -50 189 -91 206 -106 273 -178 300 -327 27 -145 -57 -277
-189 -297 -55 -8 -144 0 -198 19 l-40 14 35 19 35 19 -54 3 c-46 3 -66 -2
-125 -32 -39 -19 -104 -65 -145 -101 -41 -36 -85 -68 -98 -71 -35 -9 -71 3
-89 31 -14 22 -14 27 5 70 26 58 120 152 215 214 65 42 69 46 43 49 -60 7
-186 -44 -330 -134 -85 -52 -123 -62 -165 -40 -57 29 -56 72 1 130 81 81 203
153 332 197 l70 24 -44 3 c-69 5 -175 -25 -300 -84 -143 -68 -198 -70 -221 -8
-21 54 38 111 183 179 84 40 167 63 255 72 70 7 80 17 25 28 -70 13 -186 6
-263 -15 -41 -12 -98 -24 -126 -27 -44 -4 -55 -2 -73 16 -30 30 -27 74 5 100
68 54 265 84 406 63 141 -21 184 -25 173 -14 -16 17 -164 71 -229 84 -70 15
-92 43 -60 79 27 30 97 22 200 -23z m940 -266 c143 -104 196 -330 109 -464
-26 -39 -34 -42 -173 -57 -64 -6 -72 -5 -66 8 66 153 30 329 -92 457 l-51 53
46 7 c25 3 64 10 86 14 75 14 101 11 141 -18z m5269 -88 c47 -23 66 -39 90
-78 28 -46 30 -56 30 -140 0 -76 -4 -98 -24 -136 -42 -82 -111 -140 -165 -140
-14 0 -70 10 -125 21 l-101 22 43 27 c130 82 190 291 125 432 l-26 57 46 -18
c26 -11 74 -32 107 -47z m-4645 -1144 c271 -70 489 -198 898 -528 179 -144
334 -259 487 -362 61 -41 112 -75 114 -77 10 -7 -117 -147 -177 -196 -220
-179 -404 -242 -774 -263 -60 -3 -108 -9 -108 -14 0 -4 15 -12 33 -17 l32 -10
-60 -28 c-149 -71 -240 -103 -260 -92 -37 18 -145 98 -145 106 0 8 209 148
386 259 l81 50 79 -19 c127 -30 192 -22 89 12 l-40 13 50 13 c107 29 230 91
214 107 -3 3 -32 -3 -65 -13 -115 -35 -217 -44 -396 -37 -92 3 -168 4 -168 2
0 -2 30 -14 66 -26 36 -12 62 -25 57 -29 -4 -4 -51 -34 -103 -66 -52 -33 -155
-99 -228 -147 -73 -49 -139 -91 -147 -94 -9 -4 -23 12 -41 48 -90 178 -276
378 -481 517 -35 23 -63 48 -63 55 0 8 18 50 40 94 42 84 49 112 26 112 -18 0
-139 -52 -199 -85 -48 -27 -48 -27 -110 -12 -34 8 -86 18 -114 22 -29 4 -53
10 -52 13 1 10 338 326 436 410 113 98 210 169 333 247 l105 66 65 -6 c36 -3
99 -15 140 -25z m-739 -809 c-30 -58 -27 -76 17 -102 140 -85 346 -273 434
-395 l36 -51 -46 -34 c-26 -19 -52 -37 -57 -41 -6 -4 -62 11 -125 33 -81 27
-132 39 -172 39 -62 0 -68 6 -42 45 27 42 -2 28 -40 -19 -20 -23 -36 -46 -36
-50 0 -3 24 -6 53 -7 28 -1 63 -4 77 -8 22 -6 19 -9 -25 -20 -127 -32 -253
-135 -318 -258 -40 -77 -67 -167 -67 -226 0 -35 -2 -38 -22 -31 -41 12 -127
75 -158 114 -56 70 -74 126 -75 221 0 83 2 91 46 180 25 52 59 132 74 179 44
139 143 335 208 414 l23 29 54 -16 54 -16 60 34 c33 19 62 32 64 30 2 -1 -6
-21 -17 -44z m-337 -11 c-15 -22 -29 -38 -31 -36 -3 2 -8 21 -13 40 l-8 36 39
0 39 0 -26 -40z m2683 -225 l28 -24 -53 -1 -53 0 18 25 c22 31 26 31 60 0z
m-2841 -94 c-13 -33 -32 -87 -41 -118 -9 -32 -31 -87 -50 -123 -18 -36 -39
-84 -46 -108 -11 -39 -15 -43 -37 -37 -13 3 -37 9 -53 12 -33 6 -33 -1 8 141
24 85 48 139 81 180 18 23 154 123 160 117 2 -1 -8 -30 -22 -64z m799 -355
l50 -23 -47 -8 c-26 -4 -55 -13 -64 -20 -14 -10 -4 -11 57 -8 63 4 85 1 143
-21 148 -56 317 -198 401 -335 34 -57 123 -246 139 -299 5 -16 3 -22 -8 -22
-18 0 -129 -40 -124 -45 2 -2 26 1 53 7 88 17 122 1 182 -85 28 -40 72 -99 98
-131 42 -52 45 -59 32 -74 -8 -10 -18 -31 -22 -49 -3 -18 -14 -35 -25 -38 -10
-3 -41 -30 -69 -60 -54 -57 -97 -135 -107 -195 -11 -65 -11 -65 -74 -6 -34 30
-105 92 -159 135 -114 93 -138 120 -147 167 -10 54 -24 50 -24 -5 0 -28 -2
-51 -5 -51 -3 0 -60 33 -126 73 -244 146 -463 334 -531 454 -22 39 -34 52 -36
40 -5 -25 -19 -21 -65 19 -55 47 -66 69 -67 134 0 202 149 403 339 456 75 20
149 17 206 -10z m-995 -100 l45 -13 7 -60 c15 -132 112 -259 251 -328 54 -27
81 -47 99 -75 l25 -37 -28 -83 c-16 -46 -43 -108 -61 -139 -64 -110 -346 -365
-380 -345 -7 4 -23 16 -35 27 -32 29 -38 16 -13 -32 11 -23 18 -47 14 -54 -4
-7 -33 -41 -63 -77 -31 -36 -73 -86 -94 -111 l-37 -47 -37 19 c-50 26 -97 24
-161 -6 -30 -14 -58 -22 -63 -19 -5 3 -8 0 -7 -7 4 -19 -71 -41 -111 -34 -40
8 -91 55 -91 85 0 25 27 80 39 80 5 0 15 -10 24 -22 8 -13 36 -38 63 -57 47
-32 47 -32 -13 24 -35 31 -63 61 -63 67 0 6 22 45 49 87 63 99 165 300 168
329 5 56 109 334 173 462 23 47 60 111 81 142 22 32 39 68 39 81 0 30 29 128
42 145 14 16 81 15 138 -2z m2185 -989 c108 -2 125 -5 170 -29 28 -14 61 -38
74 -52 l25 -26 -32 6 c-26 5 -36 1 -62 -24 -36 -36 -39 -77 -9 -116 30 -38 79
-36 113 5 26 30 27 30 51 15 26 -17 29 -24 19 -50 -7 -18 -35 -21 -51 -5 -15
15 -34 3 -26 -16 3 -9 2 -31 -2 -51 l-6 -36 -17 23 c-22 32 -32 39 -65 39 -41
0 -77 -40 -77 -87 0 -21 4 -43 8 -50 10 -15 61 -35 73 -27 19 11 21 -28 5 -91
-9 -35 -16 -89 -16 -120 0 -30 -4 -55 -8 -55 -13 0 -32 72 -32 121 0 45 -13
79 -26 67 -3 -4 -9 -26 -11 -50 -4 -36 -10 -45 -37 -58 -39 -19 -69 -72 -98
-175 -18 -67 -22 -106 -23 -235 0 -134 3 -165 23 -227 12 -40 27 -75 32 -78 6
-3 10 -11 10 -16 0 -6 -19 0 -41 13 -71 40 -86 68 -283 549 -42 103 -76 192
-76 198 0 6 -14 21 -31 33 -66 49 -78 121 -29 170 21 21 36 28 48 23 45 -19
49 -16 100 53 29 38 64 95 78 126 26 58 27 82 8 174 -9 48 18 76 66 68 19 -4
89 -8 155 -9z m-3026 -103 c26 -19 60 -87 61 -122 0 -12 -7 -34 -16 -47 -12
-19 -15 -40 -12 -80 4 -46 10 -62 38 -90 67 -69 180 -82 265 -30 106 65 154
68 199 14 31 -36 34 -81 8 -124 -16 -25 -18 -45 -14 -118 5 -99 -10 -186 -42
-243 l-21 -38 -109 -1 -110 -1 -11 -34 c-10 -29 -17 -35 -41 -35 -26 0 -29 3
-32 38 -3 29 -7 37 -23 37 -11 0 -33 7 -50 15 -23 13 -48 15 -112 9 -75 -5
-90 -3 -170 24 -52 19 -146 40 -230 52 -78 11 -181 27 -228 35 -47 8 -102 15
-121 15 -36 0 -36 0 -28 35 19 84 118 152 282 194 42 11 91 27 109 36 62 32
398 235 403 244 3 4 -4 17 -16 27 -35 31 -78 106 -78 136 0 32 31 68 58 68 10
0 28 -7 41 -16z m2745 -12 c12 -23 12 -33 -1 -72 -8 -24 -32 -71 -53 -103
l-37 -59 -55 -1 -55 -2 10 35 c17 62 56 129 106 180 26 28 53 50 59 50 6 0 18
-12 26 -28z m521 -35 c13 -10 16 -21 11 -40 -5 -22 -12 -27 -37 -27 -35 0 -46
21 -31 56 13 27 30 30 57 11z m-40 -246 c0 -31 -3 -34 -32 -37 -29 -3 -33 -1
-33 20 0 43 11 57 39 54 22 -3 26 -8 26 -37z m95 -39 c18 -14 20 -21 11 -44
-8 -21 -15 -25 -33 -21 -42 11 -48 21 -30 54 20 34 23 35 52 11z m-768 -472
c65 -28 123 -59 130 -68 11 -13 10 -15 -7 -10 -11 4 -51 16 -90 27 -91 28
-102 23 -74 -31 20 -40 20 -42 3 -55 -10 -7 -21 -13 -26 -13 -32 0 62 -87 165
-152 6 -4 9 -10 5 -13 -3 -3 -34 6 -69 21 -35 15 -136 53 -224 85 -173 62
-171 58 -41 79 38 6 78 16 88 21 33 18 20 54 -47 138 -36 44 -65 83 -65 86 0
3 30 -10 68 -28 37 -19 120 -58 184 -87z m-3233 -19 c12 -8 13 -14 3 -35 -13
-28 -23 -31 -53 -16 -19 10 -26 40 -12 53 9 10 45 8 62 -2z m221 -50 c0 -29
-16 -43 -46 -39 -25 2 -28 7 -25 28 1 14 7 28 13 31 17 11 58 -3 58 -20z
m3710 7 c0 -9 3 -9 12 0 18 18 36 15 49 -9 18 -35 -2 -66 -43 -65 -43 2 -58
12 -58 40 0 22 17 46 32 46 4 0 8 -5 8 -12z m-3500 -17 c0 -27 -15 -41 -41
-41 -24 0 -29 4 -29 25 0 22 4 25 35 25 19 0 35 -4 35 -9z m308 1 c10 -7 10
-15 2 -36 -8 -22 -15 -27 -37 -24 -28 3 -40 25 -29 54 6 15 43 19 64 6z m2674
-112 c10 -24 17 -45 15 -47 -2 -2 -24 8 -48 22 -46 26 -79 32 -79 14 0 -5 -13
-3 -29 7 -27 16 -28 19 -15 39 8 12 12 29 9 37 -5 13 6 11 62 -7 62 -21 69
-26 85 -65z m-2329 74 c18 -6 11 -40 -9 -48 -24 -9 -44 5 -44 30 0 24 20 31
53 18z m2755 -116 c17 -17 15 -73 -4 -89 -37 -31 -74 49 -39 85 20 19 27 20
43 4z m116 -111 c13 -10 15 -18 8 -37 -8 -20 -16 -25 -41 -24 -41 1 -43 5 -30
42 12 34 33 41 63 19z"/>
<path d="M7303 11925 c-18 -7 -75 -54 -127 -103 -52 -49 -104 -92 -116 -95
-13 -3 -28 2 -40 16 l-20 21 0 -26 c0 -41 42 -78 88 -78 35 0 48 9 130 83 112
104 146 122 219 113 l54 -6 -16 23 c-19 29 -85 67 -116 67 -13 -1 -38 -7 -56
-15z"/>
<path d="M7239 11700 c-53 -28 -99 -77 -99 -106 0 -30 14 -30 82 1 30 14 92
30 137 37 76 10 81 12 59 24 -34 19 -111 17 -175 -6 l-56 -19 19 20 c11 12 36
30 57 40 20 11 37 22 37 24 0 10 -26 4 -61 -15z"/>
<path d="M8090 11593 c-53 -50 -74 -106 -53 -146 13 -27 13 -31 -11 -68 -41
-62 -34 -71 32 -43 52 21 92 62 92 95 0 31 -35 79 -58 79 -11 0 -6 10 18 35
37 38 60 44 80 20 9 -11 16 -13 24 -5 15 15 -26 64 -57 68 -19 2 -37 -7 -67
-35z"/>
<path d="M6903 11330 c-40 -16 -27 -32 20 -25 52 9 63 15 46 26 -17 11 -37 10
-66 -1z"/>
<path d="M7140 11245 c-19 -7 -77 -33 -129 -59 -52 -25 -106 -46 -120 -46
l-26 0 21 -18 c24 -20 102 -153 134 -229 12 -29 23 -53 25 -53 1 0 28 9 61 21
42 14 95 22 182 26 111 5 124 8 146 30 58 58 38 173 -46 269 -60 68 -161 92
-248 59z m140 -33 c19 -9 35 -23 35 -31 0 -8 -15 -18 -35 -23 -19 -5 -87 -24
-151 -43 -63 -19 -123 -35 -132 -35 -9 0 -26 10 -37 22 l-21 23 73 34 c167 77
205 85 268 53z"/>
<path d="M7915 9976 c-56 -26 -127 -97 -170 -170 -35 -60 -77 -174 -66 -180 9
-6 129 -26 156 -26 15 0 26 15 44 63 31 80 47 105 82 122 81 42 94 -45 27
-180 -46 -94 -128 -185 -349 -392 -194 -181 -203 -191 -245 -276 -25 -48 -42
-92 -39 -97 4 -6 27 -10 53 -10 26 0 128 -9 227 -20 99 -11 188 -20 198 -20
12 0 31 28 64 95 26 52 45 96 42 99 -2 3 -65 10 -138 17 l-134 12 69 60 c139
121 332 324 382 401 117 178 142 353 66 453 -55 73 -173 94 -269 49z"/>
<path d="M8510 9945 c-93 -29 -183 -136 -235 -280 -15 -42 -26 -78 -23 -81 6
-6 114 -24 144 -24 18 0 27 13 49 68 32 80 68 122 106 122 71 0 44 -123 -60
-273 -51 -73 -405 -456 -451 -487 -25 -17 -114 -186 -107 -204 5 -12 403 -53
414 -42 12 12 103 180 99 183 -2 2 -48 9 -102 15 -55 6 -101 13 -103 15 -2 1
54 60 125 130 220 217 326 358 380 508 64 177 23 319 -103 354 -49 14 -77 13
-133 -4z"/>
<path d="M6561 5234 c-1 -215 -10 -306 -29 -299 -20 7 -7 -43 18 -69 18 -18
18 -18 28 1 6 11 18 62 27 114 9 52 20 108 26 125 7 23 5 40 -7 70 -9 21 -27
77 -40 124 l-22 85 -1 -151z"/>
<path d="M3657 5676 c-7 -17 27 -88 54 -111 19 -18 19 -17 19 27 0 65 -56 129
-73 84z"/>
<path d="M3385 5253 c-79 -42 -135 -105 -135 -151 0 -10 11 -29 25 -42 47 -44
131 -21 463 126 34 15 62 30 62 34 0 3 -80 -9 -177 -27 -202 -37 -226 -39
-242 -19 -13 16 -4 44 27 79 18 21 16 21 -23 0z"/>
<path d="M5626 12314 c-41 -40 -5 -76 258 -258 131 -90 176 -112 176 -84 0 14
-247 266 -313 319 -53 42 -94 50 -121 23z"/>
<path d="M5463 11859 c-19 -19 -16 -43 6 -63 38 -34 515 -146 535 -126 14 14
3 21 -84 58 -275 116 -429 160 -457 131z"/>
<path d="M5826 11429 c-117 -10 -133 -15 -152 -44 -15 -23 -15 -27 1 -51 15
-24 22 -26 64 -21 45 5 257 81 276 99 16 14 -15 28 -60 26 -22 0 -80 -4 -129
-9z"/>
<path d="M2345 8026 c-152 -35 -272 -102 -381 -210 -66 -66 -89 -98 -127 -176
-61 -124 -77 -190 -77 -320 0 -124 18 -208 65 -305 87 -180 244 -309 450 -371
113 -33 281 -38 385 -10 304 82 512 323 546 632 15 136 -39 345 -119 466 -81
121 -223 226 -372 274 -99 32 -275 42 -370 20z m315 -92 l52 -15 -33 -17 c-42
-22 -54 -42 -45 -76 10 -39 90 -115 161 -153 134 -71 191 -134 241 -271 16
-42 36 -77 56 -94 l31 -27 -12 -59 c-11 -55 -18 -66 -89 -138 -43 -44 -97
-107 -121 -141 -24 -35 -47 -63 -51 -63 -13 0 -30 51 -30 91 0 22 19 95 42
162 87 255 44 361 -186 458 -48 20 -86 34 -86 32 0 -3 14 -21 31 -41 85 -96
78 -167 -25 -282 -80 -89 -105 -164 -81 -246 29 -100 127 -168 262 -180 65 -6
72 -9 76 -31 5 -27 -21 -50 -105 -88 -56 -25 -159 -55 -192 -55 -18 0 -18 1
-3 18 27 30 20 61 -21 101 -92 86 -246 218 -280 239 -81 49 -172 49 -207 -1
-30 -42 -16 -88 51 -168 36 -43 59 -87 50 -96 -9 -10 -94 57 -153 121 -90 96
-145 220 -159 355 -5 58 -2 77 24 151 17 47 37 102 46 123 9 21 14 47 11 58
-7 23 37 98 84 143 24 23 32 26 50 17 13 -7 50 -9 104 -5 101 8 167 -6 234
-48 l48 -31 -72 -18 c-40 -10 -123 -44 -183 -76 -111 -57 -157 -68 -207 -50
-19 7 -25 2 -44 -34 -42 -84 -8 -236 63 -279 75 -45 145 -34 236 40 32 26 100
75 150 109 105 70 142 120 142 190 0 86 -42 135 -165 192 -36 17 -65 34 -65
37 0 4 24 18 52 32 61 29 138 99 138 125 0 16 6 17 64 11 35 -3 87 -13 116
-22z"/>
<path d="M3370 7123 c1 -10 26 -36 57 -58 145 -103 343 -321 467 -512 45 -70
59 -83 70 -64 8 12 -67 163 -128 255 -106 162 -242 294 -376 365 -66 35 -90
39 -90 14z"/>
<path d="M3150 6760 c-19 -12 -5 -26 68 -67 193 -106 357 -229 520 -387 78
-75 105 -97 114 -88 31 31 -204 286 -359 389 -139 92 -314 171 -343 153z"/>
<path d="M7907 6502 c-8 -9 -78 -114 -154 -232 -192 -296 -266 -403 -278 -403
-6 0 -45 80 -89 177 -60 134 -83 176 -97 176 -10 0 -21 -5 -24 -10 -6 -9 4
-216 31 -697 8 -147 34 -145 95 7 13 33 26 60 30 60 3 0 11 -11 17 -25 6 -14
18 -25 26 -25 9 0 45 36 82 80 37 44 69 80 71 80 3 0 3 -75 2 -168 -2 -92 0
-173 4 -179 6 -9 46 7 143 58 74 39 137 69 139 67 3 -3 -6 -38 -20 -79 -20
-57 -23 -79 -16 -96 6 -13 15 -23 21 -23 16 0 12 -34 -10 -90 -28 -72 -27 -84
9 -77 41 8 451 205 476 228 36 34 7 44 -144 47 l-139 4 44 79 c54 97 110 190
226 374 117 185 117 210 0 151 -38 -19 -145 -79 -238 -132 -93 -54 -195 -113
-228 -131 l-58 -33 7 57 c10 85 72 481 95 608 11 61 20 120 20 131 0 28 -24
37 -43 16z m-81 -408 c-62 -372 -69 -475 -36 -482 8 -1 129 62 268 141 138 80
252 140 252 135 0 -5 -13 -28 -29 -51 -52 -77 -193 -318 -228 -392 -21 -45
-32 -81 -29 -93 7 -22 49 -32 130 -32 31 0 46 -4 40 -9 -5 -5 -62 -35 -127
-65 l-118 -55 7 45 c5 38 3 49 -14 67 l-21 22 34 109 c19 60 32 113 29 118
-10 15 -32 8 -163 -57 -73 -36 -134 -65 -137 -65 -2 0 -4 86 -4 190 0 236 -1
237 -121 90 -45 -55 -85 -100 -88 -100 -3 0 -15 17 -26 37 -11 20 -25 38 -31
40 -7 2 -23 -23 -35 -57 -13 -33 -27 -60 -31 -60 -5 0 -8 42 -8 93 0 50 -3
151 -6 222 -5 90 -3 127 4 120 6 -5 31 -57 57 -115 53 -119 61 -131 80 -124
17 7 118 149 265 372 62 95 115 171 117 168 2 -2 -12 -97 -31 -212z"/>
<path d="M7366 5283 c-58 -14 -57 -14 -90 -77 -26 -50 -34 -110 -16 -121 6 -3
10 -19 10 -35 0 -44 34 -59 69 -31 14 12 41 29 58 38 25 13 38 30 53 70 22 58
25 89 11 97 -4 3 -11 19 -14 35 -8 36 -20 40 -81 24z"/>
<path d="M7684 5125 c-10 -8 -29 -15 -41 -15 -22 0 -63 -42 -89 -91 -10 -21
-13 -44 -8 -79 7 -57 24 -76 51 -62 10 5 36 13 58 16 45 8 63 19 88 56 19 27
23 85 7 95 -5 3 -9 20 -7 37 3 41 -30 65 -59 43z"/>
<path d="M7844 4846 c-28 -13 -54 -31 -57 -41 -19 -48 7 -95 52 -95 95 0 155
110 82 149 -25 14 -17 15 -77 -13z"/>
</g>
</svg>
