<?xml version="1.0" standalone="no"?>
<!DOCTYPE svg PUBLIC "-//W3C//DTD SVG 20010904//EN"
 "http://www.w3.org/TR/2001/REC-SVG-20010904/DTD/svg10.dtd">
<svg version="1.0" xmlns="http://www.w3.org/2000/svg"
 width="447.775133pt" height="481.340414pt" viewBox="0 0 447.775133 481.340414"
 preserveAspectRatio="xMidYMid meet">
<metadata>
Created by potrace 1.16, written by Peter Selinger 2001-2019
</metadata>
<g transform="translate(0.000000,481.340414) scale(0.035708,-0.035708)"
fill="#000000" stroke="none">
<path d="M7975 10869 c-99 -18 -184 -43 -179 -51 3 -4 24 -8 47 -8 23 0 130
-11 237 -24 107 -14 239 -28 293 -32 108 -8 110 -7 79 56 -14 29 -26 37 -67
49 -61 16 -341 24 -410 10z"/>
<path d="M7630 10781 c0 -5 10 -11 22 -14 51 -14 3 -15 -162 -5 -109 7 -203 7
-250 2 l-75 -9 65 -31 c219 -105 314 -385 225 -664 -41 -129 -116 -253 -190
-319 -19 -17 -35 -33 -35 -35 0 -6 41 0 109 15 24 5 46 8 49 5 10 -11 -108
-57 -183 -71 -105 -20 -117 -28 -77 -49 17 -9 38 -16 46 -16 8 0 18 -5 22 -11
7 -12 -24 -10 -137 7 l-36 6 -21 -66 c-40 -123 -185 -426 -198 -414 -2 3 21
61 51 131 61 142 118 298 111 304 -3 3 -22 -9 -43 -26 -61 -48 -197 -126 -292
-166 l-88 -36 -66 -142 c-37 -78 -67 -145 -67 -149 0 -3 23 -9 51 -13 28 -4
47 -11 42 -15 -4 -5 -59 -22 -122 -39 -141 -39 -169 -54 -187 -96 -20 -48 -18
-55 14 -55 57 0 41 -15 -50 -45 -88 -29 -218 -100 -373 -205 -59 -39 -61 -44
-18 -41 41 4 188 -20 275 -45 252 -70 486 -207 848 -495 250 -199 319 -250
520 -389 91 -63 191 -134 223 -159 68 -52 57 -59 141 94 71 130 157 336 217
520 8 22 26 55 42 74 16 18 33 45 39 60 16 40 27 91 19 91 -4 0 -31 -9 -61
-19 -30 -11 -57 -18 -59 -15 -2 2 9 14 25 26 16 13 62 52 102 88 320 280 771
1066 880 1534 57 247 23 485 -90 629 -63 79 -312 197 -418 197 -58 0 -297 23
-423 41 -63 8 -376 39 -404 39 -7 0 -13 -4 -13 -9z m486 -800 c147 -67 148
-284 2 -507 -50 -77 -243 -280 -382 -401 l-69 -60 134 -12 c73 -7 136 -14 138
-17 3 -3 -16 -47 -42 -99 -33 -67 -52 -95 -64 -95 -10 0 -99 9 -198 20 -99 11
-201 20 -227 20 -26 0 -49 4 -53 10 -3 5 14 49 39 97 42 85 51 95 245 276 221
207 303 298 349 392 67 135 54 222 -27 180 -35 -17 -51 -42 -82 -122 -18 -48
-29 -63 -44 -63 -27 0 -147 20 -156 26 -11 6 31 120 66 180 43 73 114 144 170
170 62 30 143 31 201 5z m527 -32 c126 -35 167 -177 103 -354 -54 -150 -160
-291 -380 -508 -71 -70 -127 -129 -125 -130 2 -2 48 -9 103 -15 54 -6 100 -13
102 -15 4 -3 -87 -171 -99 -183 -11 -11 -409 30 -414 42 -7 18 82 187 107 204
46 31 400 414 451 487 104 150 131 273 60 273 -38 0 -74 -42 -106 -122 -22
-55 -31 -68 -49 -68 -30 0 -138 18 -144 24 -3 3 8 39 23 81 78 214 222 325
368 284z"/>
<path d="M6976 10715 c-129 -37 -255 -127 -362 -256 -84 -103 -107 -138 -101
-154 3 -7 -5 -21 -19 -30 -39 -26 -224 -196 -224 -206 0 -5 10 -7 23 -4 12 2
37 1 56 -3 34 -7 33 -8 -42 -32 -42 -14 -77 -28 -77 -31 0 -3 24 -13 53 -22
57 -18 116 -55 67 -42 -14 4 -70 9 -125 12 -83 4 -115 2 -183 -16 -134 -35
-266 -93 -432 -190 -14 -9 -82 -37 -146 -61 l-27 -11 31 -32 c82 -85 135 -255
113 -365 -18 -90 -24 -85 87 -77 180 12 341 36 495 74 194 49 294 88 393 154
108 73 103 70 97 46 -6 -20 -4 -20 44 4 154 79 370 256 488 400 38 47 71 84
73 82 10 -10 -26 -86 -75 -158 -30 -43 -52 -82 -49 -84 3 -3 28 9 56 27 58 37
135 130 178 215 104 205 104 443 1 599 -89 134 -253 202 -393 161z"/>
<path d="M8952 10514 c88 -182 101 -238 102 -439 0 -153 -11 -237 -50 -372
-11 -38 9 -26 51 32 22 31 41 51 43 46 5 -16 -45 -106 -99 -176 -40 -52 -48
-69 -38 -76 8 -5 20 -9 27 -9 7 0 20 -5 30 -10 9 -6 70 -32 135 -60 l118 -50
37 19 c151 77 284 234 349 410 32 88 44 69 18 -31 -31 -125 -130 -291 -204
-346 -17 -12 -31 -26 -31 -31 0 -14 217 -111 339 -151 151 -50 296 -79 435
-87 l112 -6 37 38 c56 58 81 118 85 206 6 116 -13 151 -130 237 -282 208 -476
318 -498 282 -6 -9 -18 -5 -46 18 -22 17 -51 34 -65 37 -19 5 -31 18 -42 45
-12 30 -22 41 -50 48 -19 5 -63 32 -98 60 -170 133 -343 256 -429 305 -95 54
-146 77 -138 61z"/>
<path d="M4604 9685 c-4 -8 16 -47 45 -89 28 -42 69 -111 92 -156 39 -76 43
-80 74 -80 19 0 37 5 40 11 18 27 -125 266 -184 308 -34 25 -59 27 -67 6z"/>
<path d="M10989 9642 l-22 -19 41 -38 c23 -20 56 -66 73 -101 18 -36 36 -67
41 -70 15 -10 68 17 68 35 -1 50 -81 171 -131 196 -36 19 -42 19 -70 -3z"/>
<path d="M4810 9646 c0 -4 23 -41 51 -83 28 -41 62 -100 76 -130 27 -59 40
-68 78 -59 35 9 32 38 -14 121 -59 106 -97 145 -148 152 -24 3 -43 3 -43 -1z"/>
<path d="M10847 9564 l-28 -15 31 -39 c17 -21 42 -63 56 -94 22 -48 29 -56 53
-56 60 0 88 55 40 81 -10 5 -26 23 -34 39 -17 33 -73 100 -84 100 -3 -1 -19
-8 -34 -16z"/>
<path d="M5670 8375 c-123 -78 -220 -149 -333 -247 -98 -84 -435 -400 -436
-410 -1 -3 23 -9 52 -13 28 -4 80 -14 114 -22 62 -15 62 -15 110 12 60 33 181
85 199 85 23 0 16 -28 -26 -112 -22 -44 -40 -86 -40 -94 0 -7 28 -32 63 -55
205 -139 391 -339 481 -517 18 -36 32 -52 41 -48 8 3 74 45 147 94 73 48 176
114 228 147 52 32 99 62 103 66 5 4 -21 17 -57 29 -36 12 -66 24 -66 26 0 2
76 1 168 -2 179 -7 281 2 396 37 33 10 62 16 65 13 16 -16 -107 -78 -214 -107
l-50 -13 40 -13 c103 -34 38 -42 -89 -12 l-79 19 -81 -50 c-177 -111 -386
-251 -386 -259 0 -8 108 -88 145 -106 20 -11 111 21 260 92 l60 28 -32 10
c-18 5 -33 13 -33 17 0 5 48 11 108 14 370 21 554 84 774 263 60 49 187 189
177 196 -2 2 -53 36 -114 77 -153 103 -308 218 -487 362 -213 172 -302 238
-410 306 -223 141 -451 231 -628 247 l-65 6 -105 -66z"/>
<path d="M4860 7594 c5 -19 10 -38 13 -40 2 -2 16 14 31 36 l26 40 -39 0 -39
0 8 -36z"/>
<path d="M7527 7365 l-18 -25 53 0 53 1 -28 24 c-34 31 -38 31 -60 0z"/>
<path d="M5339 6926 c-190 -53 -339 -254 -339 -456 1 -65 12 -87 67 -134 46
-40 60 -44 65 -19 2 12 14 -1 36 -40 68 -120 287 -308 531 -454 66 -40 123
-73 126 -73 3 0 5 23 5 51 0 55 14 59 24 5 9 -47 33 -74 147 -167 54 -43 125
-105 159 -135 63 -59 63 -59 74 6 10 60 53 138 107 195 28 30 59 57 69 60 11
3 22 20 25 38 4 18 14 39 22 49 13 15 10 22 -32 74 -26 32 -70 91 -98 131 -60
86 -94 102 -182 85 -27 -6 -51 -9 -53 -7 -5 5 106 45 124 45 11 0 13 6 8 22
-16 53 -105 242 -139 299 -84 137 -253 279 -401 335 -58 22 -80 25 -143 21
-61 -3 -71 -2 -57 8 9 7 38 16 64 20 l47 8 -50 23 c-57 27 -131 30 -206 10z"/>
<path d="M4412 6818 c-13 -17 -42 -115 -42 -145 0 -13 -17 -49 -39 -81 -21
-31 -58 -95 -81 -142 -64 -128 -168 -406 -173 -462 -3 -29 -105 -230 -168
-329 -27 -42 -49 -81 -49 -87 0 -13 106 -109 142 -128 24 -12 32 -11 80 11 64
30 111 32 161 6 l37 -19 37 47 c21 25 63 75 94 111 30 36 59 70 63 77 4 7 -3
31 -14 54 -25 48 -19 61 13 32 12 -11 28 -23 35 -27 34 -20 316 235 380 345
18 31 45 93 61 139 l28 83 -25 37 c-18 28 -45 48 -99 75 -139 69 -236 196
-251 328 l-7 60 -45 13 c-57 17 -124 18 -138 2z"/>
<path d="M7740 6138 c-147 -223 -248 -365 -265 -372 -19 -7 -27 5 -80 124 -26
58 -51 110 -57 115 -7 7 -9 -30 -4 -120 3 -71 6 -172 6 -222 0 -51 3 -93 8
-93 4 0 18 27 31 60 12 34 28 59 35 57 6 -2 20 -20 31 -40 11 -20 23 -37 26
-37 3 0 43 45 88 100 120 147 121 146 121 -90 0 -104 2 -190 4 -190 3 0 64 29
137 65 131 65 153 72 163 57 3 -5 -10 -58 -29 -118 l-34 -109 21 -22 c17 -18
19 -29 14 -67 l-7 -45 118 55 c65 30 122 60 127 65 6 5 -9 9 -40 9 -81 0 -123
10 -130 32 -3 12 8 48 29 93 35 74 176 315 228 392 16 23 29 46 29 51 0 5
-114 -55 -252 -135 -139 -79 -260 -142 -268 -141 -33 7 -26 110 36 482 19 115
33 210 31 212 -2 3 -55 -73 -117 -168z"/>
<path d="M6010 5035 c0 -3 29 -42 65 -86 67 -84 80 -120 47 -138 -10 -5 -50
-15 -88 -21 -130 -21 -132 -17 41 -79 88 -32 189 -70 224 -85 35 -15 66 -24
69 -21 4 3 1 9 -5 13 -103 65 -197 152 -165 152 5 0 16 6 26 13 17 13 17 15
-3 55 -28 54 -17 59 74 31 39 -11 79 -23 90 -27 17 -5 18 -3 7 10 -7 9 -65 40
-130 68 -64 29 -147 68 -184 87 -38 18 -68 31 -68 28z"/>
</g>
</svg>
