<?xml version="1.0" standalone="no"?>
<!DOCTYPE svg PUBLIC "-//W3C//DTD SVG 20010904//EN"
 "http://www.w3.org/TR/2001/REC-SVG-20010904/DTD/svg10.dtd">
<svg version="1.0" xmlns="http://www.w3.org/2000/svg"
 width="447.775133pt" height="481.340414pt" viewBox="0 0 447.775133 481.340414"
 preserveAspectRatio="xMidYMid meet">
<metadata>
Created by potrace 1.16, written by Peter Selinger 2001-2019
</metadata>
<g transform="translate(0.000000,481.340414) scale(0.035708,-0.035708)"
fill="#000000" stroke="none">
<path d="M7317 13148 c-52 -11 -116 -44 -154 -80 -38 -36 -75 -39 -108 -8 -30
28 -90 41 -139 30 -75 -17 -166 -126 -224 -271 -14 -35 -43 -41 -85 -19 -19
10 -47 19 -63 21 -68 5 -85 -1 -139 -51 -88 -84 -121 -193 -91 -308 17 -68 13
-90 -27 -138 -30 -36 -61 -96 -78 -152 -13 -46 -43 -67 -76 -55 -10 3 -88 74
-173 158 -85 84 -171 160 -190 170 -45 24 -153 25 -195 3 -64 -34 -98 -90 -98
-163 0 -64 19 -101 84 -159 37 -33 52 -54 52 -72 0 -39 -13 -45 -99 -48 -89
-3 -105 -9 -152 -59 -67 -70 -64 -169 9 -243 46 -46 57 -52 167 -84 55 -16 75
-27 81 -43 11 -29 5 -45 -34 -87 -45 -49 -57 -76 -57 -130 0 -57 19 -96 70
-142 73 -66 147 -62 359 18 101 38 129 54 158 85 20 23 36 51 37 67 3 54 -3
87 -21 112 -29 42 -30 56 -9 96 24 46 26 114 4 166 -18 42 -11 71 23 102 33
30 67 23 109 -23 29 -33 49 -45 96 -57 48 -12 67 -23 95 -56 19 -22 50 -47 68
-54 35 -15 46 -30 61 -86 9 -31 7 -43 -14 -82 -33 -61 -40 -136 -21 -216 9
-36 18 -89 22 -118 9 -79 39 -167 81 -234 20 -33 37 -71 37 -83 0 -17 -34 -56
-117 -136 -116 -111 -185 -190 -248 -285 -18 -27 -85 -99 -148 -160 l-115
-111 -132 -41 c-82 -27 -190 -72 -290 -122 -234 -117 -249 -123 -318 -121 -33
0 -112 -8 -175 -19 l-115 -19 -105 53 c-58 29 -123 59 -144 66 -22 7 -61 28
-87 46 -69 50 -244 131 -324 150 -151 35 -281 -14 -352 -133 -17 -30 -35 -45
-61 -54 -111 -36 -205 -109 -243 -187 -29 -58 -31 -155 -6 -228 15 -43 16 -59
6 -104 -21 -99 6 -193 75 -259 26 -25 39 -49 48 -89 22 -100 114 -191 213
-212 48 -10 57 -16 69 -43 37 -86 149 -151 261 -151 86 0 154 28 235 98 78 68
88 70 190 46 143 -33 237 -25 360 29 43 19 91 32 140 36 87 8 198 30 255 50
22 7 101 17 175 21 170 8 180 8 192 -4 17 -17 12 -65 -7 -77 -10 -5 -93 -59
-184 -119 -193 -127 -266 -191 -283 -249 -8 -26 -26 -51 -57 -76 -194 -158
-275 -230 -484 -428 -137 -130 -246 -241 -257 -263 -24 -48 -34 -124 -22 -175
5 -23 6 -50 2 -61 -4 -11 -39 -43 -78 -72 -130 -97 -187 -183 -238 -362 -21
-75 -35 -104 -64 -136 -28 -31 -46 -67 -74 -151 -43 -130 -53 -146 -91 -145
-33 0 -39 6 -115 133 -133 221 -402 457 -551 483 -48 9 -58 22 -70 98 -37 217
-70 319 -138 424 -50 76 -198 218 -274 263 -143 84 -312 126 -477 118 -137 -7
-241 -35 -370 -99 -94 -47 -117 -64 -216 -163 -102 -101 -116 -119 -163 -215
-66 -136 -82 -199 -88 -345 -11 -250 60 -438 230 -613 121 -124 240 -193 413
-238 231 -61 487 -21 687 108 55 36 89 39 120 10 12 -11 49 -35 82 -53 183
-101 352 -227 511 -381 65 -63 114 -103 139 -111 52 -18 59 -43 30 -105 -27
-57 -39 -63 -112 -46 -87 20 -181 -12 -243 -82 -46 -53 -63 -98 -66 -179 -1
-38 -3 -75 -3 -81 -2 -23 -204 -131 -285 -153 -148 -41 -223 -78 -298 -150
-77 -72 -110 -127 -128 -215 -15 -73 1 -171 36 -219 13 -18 30 -48 39 -67 20
-43 70 -96 110 -117 17 -9 63 -17 108 -19 43 -2 90 -10 105 -18 40 -21 111
-29 159 -18 30 7 56 6 95 -5 55 -14 104 -11 169 12 33 12 42 11 90 -12 42 -20
74 -26 144 -29 50 -2 135 -7 190 -10 158 -10 209 -9 243 5 38 16 181 170 210
227 34 66 55 162 62 284 7 112 32 268 47 295 26 45 168 195 228 240 81 62 280
263 314 318 37 61 74 56 159 -25 128 -119 437 -328 573 -386 52 -23 215 -155
221 -180 13 -55 -23 -76 -97 -57 -68 17 -112 5 -157 -44 -51 -54 -55 -120 -13
-199 29 -54 22 -80 -27 -104 -48 -23 -108 -92 -109 -126 -2 -53 2 -77 20 -102
41 -59 32 -96 -29 -106 l-40 -7 0 -1847 0 -1847 228 -404 227 -404 228 404
227 404 0 1648 c0 1022 4 1657 10 1673 14 38 69 45 134 16 28 -12 82 -29 120
-37 66 -14 75 -14 156 6 105 26 156 26 212 4 55 -23 153 -22 238 1 44 12 98
17 165 17 127 -1 170 9 212 52 40 40 56 95 43 151 -17 76 20 120 118 141 86
18 106 27 150 69 64 60 87 131 68 207 -8 28 -23 61 -36 74 -23 24 -30 70 -14
84 5 4 92 47 194 96 204 96 265 142 280 208 17 77 -32 163 -107 188 -42 13
-55 43 -38 84 6 17 49 88 94 160 98 154 106 169 114 215 11 58 -8 111 -52 153
-67 62 -115 56 -298 -38 -212 -110 -219 -103 -171 169 37 212 40 295 11 333
-43 59 -108 86 -172 72 -51 -11 -103 -70 -226 -261 -62 -95 -122 -178 -135
-184 -34 -18 -59 -5 -84 45 -32 61 -65 91 -115 102 -100 22 -192 -40 -206
-140 -4 -28 -4 -82 0 -119 7 -76 -4 -117 -34 -125 -12 -3 -47 8 -83 25 -81 38
-184 59 -278 57 -115 -3 -130 3 -183 75 -26 35 -47 69 -47 75 0 6 -18 31 -40
55 -22 24 -47 63 -55 87 -9 24 -36 87 -61 140 -37 80 -43 101 -35 122 5 14 20
29 32 32 13 4 84 35 159 68 113 50 149 61 220 69 260 27 497 122 685 271 l85
68 92 3 c127 5 189 26 247 84 91 92 255 418 352 702 17 52 42 106 55 120 30
33 59 101 74 173 10 52 21 69 108 170 122 141 177 216 290 392 88 139 215 364
253 449 27 62 56 67 147 27 96 -42 158 -54 212 -42 42 9 52 7 165 -43 200 -89
397 -146 601 -175 36 -6 75 -19 97 -34 53 -36 353 -105 402 -93 13 3 58 -3
100 -14 220 -56 486 20 685 198 78 69 92 75 211 83 129 8 177 27 240 96 55 58
73 107 72 187 -1 39 6 78 19 110 26 65 27 146 1 211 -11 28 -23 75 -27 106 -8
67 -29 102 -85 149 -24 19 -70 64 -104 99 -34 34 -79 72 -100 82 -54 28 -148
34 -229 15 -119 -28 -184 -64 -346 -190 -20 -16 -42 -20 -111 -21 -105 -2
-159 -23 -234 -93 -63 -60 -71 -63 -122 -45 -22 8 -59 18 -82 23 -26 6 -100
49 -196 114 -168 113 -258 163 -356 195 -48 16 -72 31 -98 60 -18 22 -59 52
-91 67 -31 16 -120 76 -197 135 -77 58 -183 134 -235 169 -94 61 -261 150
-310 165 -14 4 -94 41 -179 83 -132 66 -157 82 -180 117 -23 35 -26 49 -24
114 3 82 9 97 95 225 44 65 65 87 91 95 52 18 95 69 112 134 8 32 24 70 36 86
15 20 20 42 19 77 0 27 -1 57 -1 67 0 10 18 35 41 55 49 44 66 98 51 164 -12
54 -47 87 -123 118 -78 31 -90 51 -72 121 14 52 10 96 -12 139 -20 41 -107
116 -171 149 l-60 30 -17 68 c-10 37 -28 86 -41 109 -31 53 -109 124 -137 125
-91 4 -97 6 -145 49 -26 23 -82 59 -122 78 -63 31 -86 36 -143 36 -56 0 -73
-4 -100 -24 -32 -24 -37 -25 -202 -23 -93 1 -173 6 -177 10 -4 4 -15 35 -24
68 -26 101 -98 152 -188 133z m-3958 -6212 c17 -44 -16 -80 -62 -68 -22 6 -36
38 -29 65 10 39 77 41 91 3z"/>
</g>
</svg>
