<?xml version="1.0" standalone="no"?>
<!DOCTYPE svg PUBLIC "-//W3C//DTD SVG 20010904//EN"
 "http://www.w3.org/TR/2001/REC-SVG-20010904/DTD/svg10.dtd">
<svg version="1.0" xmlns="http://www.w3.org/2000/svg"
 width="444.330709pt" height="444.330709pt" viewBox="0 0 444.330709 444.330709"
 preserveAspectRatio="xMidYMid meet">
<metadata>
Created by potrace 1.16, written by Peter Selinger 2001-2019
</metadata>
<g transform="translate(0.000000,444.330709) scale(0.079345,-0.079345)"
fill="#000000" stroke="none">
<path d="M3606 5132 c-8 -14 23 -72 52 -97 13 -11 39 -36 58 -55 109 -112 108
-111 117 -89 23 63 -74 216 -147 233 -16 4 -39 9 -51 12 -12 3 -25 1 -29 -4z"/>
<path d="M2640 3873 c-36 -37 -52 -73 -32 -73 11 0 57 50 72 78 20 40 3 37
-40 -5z"/>
<path d="M3191 3719 c-65 -11 -71 -15 -40 -29 19 -8 13 -9 -28 -4 -90 10 -327
-77 -340 -126 -3 -11 -11 -16 -21 -13 -24 6 -132 -45 -132 -63 0 -10 -7 -13
-25 -8 -34 8 -32 1 14 -54 46 -54 141 -233 166 -309 9 -29 19 -53 22 -53 12 0
355 170 385 191 32 21 31 20 -7 -20 -40 -41 -40 -41 50 -36 135 9 267 24 273
30 19 18 -74 337 -129 448 -33 63 -52 68 -188 46z m-275 -154 c-10 -8 -23 -16
-29 -18 -6 -2 -6 -10 1 -22 27 -47 27 -47 64 -25 36 21 36 21 65 -27 58 -93
73 -121 73 -134 0 -22 -195 -122 -208 -107 -14 19 -43 78 -37 78 2 0 14 -18
25 -40 20 -39 47 -41 89 -4 3 2 -53 109 -64 122 -10 11 -65 -36 -61 -52 6 -23
-4 -12 -33 36 -20 34 -21 37 -4 42 52 18 64 86 16 86 -39 0 -64 -31 -48 -59
16 -26 16 -26 -5 -2 -26 30 -23 34 85 95 81 47 105 57 71 31z m49 -11 c9 -15
12 -23 6 -20 -11 7 -35 46 -28 46 3 0 12 -12 22 -26z"/>
<path d="M2987 3441 c-35 -23 -35 -20 3 -87 29 -51 90 -59 90 -12 0 7 -60 118
-63 118 -1 0 -15 -9 -30 -19z"/>
<path d="M3600 3562 c16 -40 41 -123 56 -185 14 -61 28 -117 30 -124 1 -6 12
-9 24 -6 43 11 -42 271 -118 363 -18 21 -17 14 8 -48z"/>
<path d="M3729 2938 c-1 -3 -9 -301 -9 -323 0 -5 3 -29 6 -53 4 -30 2 -49 -10
-67 -16 -24 -16 -25 4 -25 60 0 91 56 65 116 -14 32 -17 69 -15 197 1 152 1
157 -19 157 -12 0 -21 -1 -22 -2z"/>
<path d="M3380 2893 c-85 -8 -230 -12 -353 -11 -114 2 -207 0 -207 -3 0 -3 5
-21 11 -38 9 -24 9 -35 0 -44 -20 -20 -12 -35 32 -60 67 -39 515 -198 649
-230 32 -8 54 40 42 89 -4 16 -8 91 -8 168 -1 84 -5 140 -11 141 -5 1 -75 -4
-155 -12z"/>
<path d="M1602 2342 c-31 -46 -33 -42 69 -147 102 -106 104 -107 142 -67 27
29 27 29 -25 78 -29 27 -78 76 -108 110 -55 60 -55 60 -78 26z"/>
<path d="M3525 2240 c-44 -86 -44 -83 8 -113 39 -23 44 -30 55 -86 17 -80 197
-242 269 -241 5 0 40 57 78 127 39 70 89 162 113 205 l43 78 -88 41 c-112 52
-139 55 -246 30 -88 -21 -88 -21 -137 4 -27 14 -52 25 -55 25 -2 0 -21 -31
-40 -70z"/>
<path d="M4322 2028 c-100 -179 -202 -368 -202 -376 0 -15 197 -122 225 -122
49 0 152 146 226 321 42 98 38 104 -101 174 -132 66 -113 66 -148 3z"/>
</g>
</svg>
