<?xml version="1.0" standalone="no"?>
<!DOCTYPE svg PUBLIC "-//W3C//DTD SVG 20010904//EN"
 "http://www.w3.org/TR/2001/REC-SVG-20010904/DTD/svg10.dtd">
<svg version="1.0" xmlns="http://www.w3.org/2000/svg"
 width="444.330709pt" height="444.330709pt" viewBox="0 0 444.330709 444.330709"
 preserveAspectRatio="xMidYMid meet">
<metadata>
Created by potrace 1.16, written by Peter Selinger 2001-2019
</metadata>
<g transform="translate(0.000000,444.330709) scale(0.079345,-0.079345)"
fill="#000000" stroke="none">
<path d="M2585 4782 c-14 -7 -25 -10 -25 -6 0 15 -42 -49 -65 -99 -52 -114
-66 -198 -53 -318 14 -131 9 -146 -64 -186 -75 -40 -76 -76 -3 -114 48 -25 50
-27 47 -64 -3 -38 -3 -38 41 -32 81 11 233 91 206 108 -10 6 -7 9 11 9 28 0
70 -25 70 -42 0 -7 -6 -6 -15 2 -13 11 -15 4 -15 -51 0 -108 -54 -195 -133
-214 -32 -8 -35 -30 -7 -45 11 -6 20 -17 20 -25 0 -80 230 -29 405 90 33 23
36 24 21 6 -11 -12 -20 -30 -21 -40 -1 -11 -9 -26 -18 -36 -28 -27 -20 -27 41
4 84 42 196 73 290 79 78 5 82 6 82 28 0 40 -34 93 -52 83 -17 -9 -48 12 -48
32 0 5 -9 18 -20 29 -11 11 -20 27 -20 35 0 8 -4 15 -10 15 -5 0 -10 -6 -10
-14 0 -32 -76 -26 -101 7 -16 22 -16 22 35 22 159 0 236 243 103 326 -38 24
-89 20 -127 -11 -14 -11 -33 -23 -42 -26 -9 -4 -22 -23 -29 -43 -35 -108 -82
-97 -91 23 -7 89 -7 89 -67 145 -67 62 -72 78 -46 150 8 23 12 55 8 71 -3 17
0 36 6 44 10 12 2 18 -43 35 -98 37 -216 47 -261 23z m73 -241 c48 -48 50 -75
4 -50 -46 24 -69 24 -111 -2 -66 -40 -88 12 -24 56 51 34 94 33 131 -4z m-22
-186 c44 -106 -19 -251 -73 -168 -23 34 -25 161 -4 186 24 30 60 21 77 -18z
m639 -55 c4 -7 -2 -9 -18 -5 -14 4 -28 2 -32 -5 -4 -6 -18 -15 -31 -20 -24
-10 -24 -10 -4 -30 11 -11 20 -27 20 -36 0 -12 -5 -11 -20 7 -20 24 -20 24
-35 5 -21 -28 -21 3 0 44 23 45 101 71 120 40z"/>
<path d="M3942 4335 c-12 -25 -20 -45 -17 -45 7 0 47 81 43 86 -3 2 -14 -17
-26 -41z"/>
<path d="M3887 4244 c-16 -19 -27 -38 -24 -40 3 -3 14 7 24 23 43 62 43 72 0
17z"/>
<path d="M2516 3386 c-61 -30 -81 -34 -185 -39 -64 -3 -159 -15 -211 -25 -185
-39 -194 -39 -327 7 -66 23 -135 41 -155 41 -107 0 -209 -166 -148 -242 29
-38 36 -35 33 15 -2 39 1 35 13 -21 5 -26 50 -72 70 -72 7 0 10 8 7 23 -4 17
-1 15 15 -10 26 -40 57 -57 89 -48 24 6 24 7 8 31 -65 100 126 163 201 66 13
-16 15 -16 28 1 14 18 32 24 21 8 -25 -42 392 -102 527 -77 230 43 262 111
144 303 -50 80 -45 79 -130 39z"/>
<path d="M2399 2895 c231 -114 226 -112 235 -90 12 34 -336 195 -421 195 -19
0 43 -35 186 -105z"/>
<path d="M1985 2880 c-3 -5 1 -10 11 -10 12 0 9 -9 -16 -37 -46 -55 -230 -316
-230 -329 0 -13 224 -234 238 -234 20 0 158 144 187 195 15 28 30 52 32 54 2
3 51 -42 108 -99 57 -57 107 -102 110 -99 5 6 125 256 125 263 0 2 -109 61
-242 131 -134 70 -257 138 -275 151 -36 27 -39 28 -48 14z"/>
<path d="M2193 2316 c-69 -61 -143 -101 -164 -88 -16 10 -21 8 -34 -12 -9 -13
-25 -26 -37 -29 -17 -5 -19 -9 -10 -20 9 -10 9 -16 0 -25 -9 -9 -8 -12 3 -12
9 0 26 11 39 25 13 14 29 25 37 25 27 0 164 98 207 148 30 34 1 26 -41 -12z"/>
</g>
</svg>
