<?xml version="1.0" standalone="no"?>
<!DOCTYPE svg PUBLIC "-//W3C//DTD SVG 20010904//EN"
 "http://www.w3.org/TR/2001/REC-SVG-20010904/DTD/svg10.dtd">
<svg version="1.0" xmlns="http://www.w3.org/2000/svg"
 width="444.330709pt" height="444.330709pt" viewBox="0 0 444.330709 444.330709"
 preserveAspectRatio="xMidYMid meet">
<metadata>
Created by potrace 1.16, written by Peter Selinger 2001-2019
</metadata>
<g transform="translate(0.000000,444.330709) scale(0.079345,-0.079345)"
fill="#000000" stroke="none">
<path d="M3305 3793 c-66 -9 -201 -46 -234 -63 -49 -26 11 -28 103 -4 46 12
93 15 194 12 135 -5 151 1 117 40 -14 16 -112 24 -180 15z"/>
<path d="M3460 3632 c59 -137 138 -457 118 -477 -10 -10 -174 -25 -378 -34
-205 -10 -205 -10 -293 -50 -48 -23 -95 -41 -103 -41 -11 0 -14 -5 -10 -16 3
-9 6 -25 6 -36 0 -23 566 -21 730 1 36 5 67 7 69 5 9 -9 18 -450 9 -473 -10
-29 -13 -27 39 -35 37 -5 44 -3 54 15 13 25 13 19 8 306 -4 212 -4 212 24 217
25 5 27 9 26 53 -2 90 -10 108 -45 105 -30 -3 -30 -3 -57 126 -38 181 -110
384 -145 406 -70 43 -90 16 -52 -72z"/>
<path d="M2840 3521 c0 -6 9 -26 21 -45 21 -35 4 -59 -55 -79 -5 -2 -6 -9 -2
-15 5 -9 17 -7 46 8 53 27 51 28 89 -42 41 -77 37 -71 51 -63 7 4 -1 28 -25
71 -43 79 -43 77 0 97 19 9 35 21 35 26 0 19 -17 19 -46 0 -39 -26 -45 -24
-72 16 -21 33 -42 46 -42 26z"/>
<path d="M1416 3194 c-13 -34 -6 -73 15 -84 27 -15 32 -9 19 24 -5 15 -10 38
-10 52 0 27 -15 32 -24 8z"/>
<path d="M1766 3129 c-55 -44 -26 -111 61 -140 87 -28 129 92 48 138 -50 28
-75 29 -109 2z"/>
<path d="M1940 3051 c0 -15 -9 -40 -20 -54 -21 -26 -21 -26 152 -109 95 -45
446 -218 781 -385 697 -348 617 -316 651 -253 27 50 27 50 -560 340 -322 159
-588 290 -590 290 -1 0 -94 45 -205 100 -234 116 -209 107 -209 71z"/>
<path d="M2657 2813 c-28 -27 -2 -45 233 -163 132 -66 240 -118 240 -116 0 13
-241 165 -402 254 -64 35 -62 35 -71 25z"/>
<path d="M3015 2642 c6 -5 36 -28 68 -51 32 -24 61 -49 64 -57 8 -21 376 -204
410 -204 16 0 48 -9 71 -20 60 -27 90 -19 97 29 3 20 8 48 10 63 6 35 5 35
-117 58 -155 29 -310 76 -543 165 -38 14 -65 22 -60 17z"/>
<path d="M2557 2548 c-12 -29 -50 -111 -84 -181 -74 -151 -72 -139 -26 -167
31 -18 39 -20 48 -7 8 11 15 9 40 -15 17 -15 37 -28 45 -28 8 0 47 -21 85 -46
201 -131 283 -150 600 -139 170 6 183 8 230 33 71 38 75 77 11 110 -24 13 -46
31 -49 40 -4 17 -563 302 -591 302 -7 0 -24 8 -37 19 -34 26 -183 101 -201
101 -9 0 -18 7 -22 15 -10 28 -27 15 -49 -37z"/>
<path d="M1692 2475 c-28 -44 -28 -45 89 -162 109 -109 117 -113 164 -77 36
27 36 27 -2 57 -21 17 -80 72 -131 124 -108 109 -92 101 -120 58z"/>
<path d="M1082 2364 c-12 -8 -22 -23 -22 -32 0 -13 -2 -14 -9 -4 -7 11 -10 10
-15 -3 -21 -57 39 -169 152 -281 87 -85 87 -85 310 -82 208 3 225 4 238 22 21
30 17 36 -23 36 -65 0 -121 35 -134 83 -6 23 -22 56 -35 73 -20 28 -22 34 -9
44 31 26 5 132 -36 145 -35 11 -69 -29 -70 -84 -2 -46 -2 -46 -8 -6 -8 49 -72
84 -96 51 -7 -9 -16 -13 -19 -8 -27 45 -181 76 -224 46z m84 -222 c20 -26 53
-65 73 -88 20 -22 5 -8 -34 31 -68 69 -127 155 -140 205 -3 14 10 -3 29 -38
19 -35 51 -84 72 -110z"/>
<path d="M4072 2008 c-50 -90 -102 -184 -116 -210 -27 -46 -27 -46 29 -78 31
-18 57 -31 59 -29 1 2 42 76 91 164 48 88 100 183 116 211 29 51 29 51 -22 78
-28 14 -55 26 -59 26 -5 0 -49 -73 -98 -162z"/>
<path d="M1768 1995 c-6 -30 16 -34 32 -6 14 27 13 31 -9 31 -12 0 -20 -9 -23
-25z"/>
<path d="M1102 1928 c-16 -16 -15 -103 1 -117 10 -8 243 -12 813 -13 l799 -3
2 -690 c3 -690 3 -690 45 -777 56 -117 66 -116 123 8 45 96 45 96 45 780 l0
684 417 2 c417 3 417 3 344 47 -40 24 -80 55 -88 68 -18 27 -2474 38 -2501 11z"/>
</g>
</svg>
