<?xml version="1.0" standalone="no"?>
<!DOCTYPE svg PUBLIC "-//W3C//DTD SVG 20010904//EN"
 "http://www.w3.org/TR/2001/REC-SVG-20010904/DTD/svg10.dtd">
<svg version="1.0" xmlns="http://www.w3.org/2000/svg"
 width="444.330709pt" height="444.330709pt" viewBox="0 0 444.330709 444.330709"
 preserveAspectRatio="xMidYMid meet">
<metadata>
Created by potrace 1.16, written by Peter Selinger 2001-2019
</metadata>
<g transform="translate(0.000000,444.330709) scale(0.079345,-0.079345)"
fill="#000000" stroke="none">
<path d="M3895 5486 c-66 -21 -118 -52 -160 -95 -25 -27 -48 -41 -64 -41 -16
0 -41 -15 -68 -42 -42 -41 -42 -41 -100 -15 -89 40 -168 57 -263 57 -47 0
-117 7 -155 15 -418 88 -883 -276 -728 -571 22 -41 22 -41 -4 -104 -45 -112
-55 -202 -34 -302 17 -85 17 -85 -42 -138 -104 -94 -109 -137 -27 -225 28 -28
50 -59 50 -67 0 -24 93 -105 129 -113 37 -8 49 -29 33 -56 -23 -36 -13 -63 47
-130 87 -96 19 -159 -179 -164 -57 -2 -156 -16 -250 -35 -174 -35 -172 -36
-292 14 -96 40 -177 47 -226 22 -38 -20 -178 -166 -187 -196 -4 -14 -23 -42
-41 -63 -73 -81 4 -223 134 -247 30 -5 66 -19 82 -30 15 -11 31 -20 35 -20 3
0 26 -9 51 -20 26 -12 63 -20 87 -19 92 3 123 -26 84 -79 -19 -26 -83 -119
-143 -207 -107 -158 -109 -161 -134 -148 -35 18 -63 16 -91 -6 -28 -22 -146
-24 -171 -3 -93 77 -283 4 -339 -131 -23 -55 25 -165 117 -267 37 -41 37 -41
-7 -86 -69 -71 -66 -141 11 -219 54 -55 54 -55 812 -55 l758 0 0 -638 c0 -638
0 -638 46 -733 112 -232 205 -237 311 -14 38 80 38 80 43 730 l5 650 394 3
394 2 225 -131 c368 -215 384 -212 571 120 174 309 175 308 -440 600 -158 75
-268 121 -288 121 -34 0 -41 19 -15 41 42 35 55 99 29 149 -12 24 -14 51 -9
137 21 365 -72 762 -219 936 -30 34 -57 74 -60 87 -3 14 -22 40 -41 59 -34 33
-34 33 78 142 62 60 133 136 157 170 24 34 63 84 87 111 82 94 122 205 122
336 0 84 0 84 31 58 48 -41 90 -26 191 67 37 34 88 80 114 102 80 69 96 164
44 268 -24 47 -24 47 8 80 46 48 -28 145 -159 211 -28 14 -68 44 -87 67 -58
67 -153 88 -257 55z"/>
</g>
</svg>
