<?xml version="1.0" standalone="no"?>
<!DOCTYPE svg PUBLIC "-//W3C//DTD SVG 20010904//EN"
 "http://www.w3.org/TR/2001/REC-SVG-20010904/DTD/svg10.dtd">
<svg version="1.0" xmlns="http://www.w3.org/2000/svg"
 width="444.330709pt" height="444.330709pt" viewBox="0 0 444.330709 444.330709"
 preserveAspectRatio="xMidYMid meet">
<metadata>
Created by potrace 1.16, written by Peter Selinger 2001-2019
</metadata>
<g transform="translate(0.000000,444.330709) scale(0.079345,-0.079345)"
fill="#000000" stroke="none">
<path d="M3955 5361 c-106 -31 -175 -84 -218 -168 -32 -61 30 -125 76 -79 27
27 99 66 119 66 7 -1 -5 -10 -28 -21 -77 -37 -110 -82 -90 -122 9 -19 16 -40
16 -45 0 -6 5 -12 12 -14 6 -2 12 -26 14 -52 4 -65 84 -135 155 -136 29 0 39
60 19 103 -7 14 -1 11 18 -11 32 -35 49 -82 48 -125 -3 -56 85 23 104 95 12
41 -2 128 -20 128 -4 0 -12 11 -18 24 -6 13 -34 35 -63 50 -29 14 -45 26 -36
26 28 0 67 -28 155 -114 88 -86 85 -86 84 1 -1 66 -76 150 -162 182 -53 19
-53 34 -3 38 21 1 60 8 87 16 49 13 49 13 -8 35 -73 28 -177 38 -236 22 -101
-26 -97 -26 -76 -2 10 11 30 24 45 27 23 5 60 41 85 83 9 16 -5 15 -79 -7z"/>
<path d="M2840 5224 c-259 -49 -430 -254 -357 -426 19 -44 22 -45 82 -16 34
17 53 35 75 74 61 109 242 207 375 203 37 -1 35 -2 -16 -10 -107 -15 -253 -92
-322 -168 -64 -71 -40 -100 38 -48 30 21 30 21 13 1 -33 -38 7 -40 112 -6 36
12 135 33 220 47 85 14 170 30 188 36 18 6 37 9 43 7 23 -8 -169 -60 -271 -74
-226 -31 -240 -38 -155 -73 54 -22 54 -23 39 -46 -9 -13 -13 -33 -10 -43 4
-10 0 -31 -8 -47 -42 -80 13 -162 138 -207 44 -16 25 -17 -26 -2 -14 4 -15 0
-7 -33 5 -21 9 -63 9 -94 0 -88 25 -89 68 -3 77 153 235 159 296 12 29 -69 9
-160 -53 -229 -32 -37 -37 -48 -29 -69 13 -34 15 -35 38 -15 11 10 20 13 20 7
0 -7 -9 -17 -19 -24 -15 -9 -17 -15 -8 -30 15 -24 44 -23 59 2 7 11 17 20 22
20 4 0 3 -7 -4 -15 -36 -44 7 -69 57 -33 73 51 217 193 260 255 21 31 48 67
61 80 33 33 71 121 82 189 9 59 9 59 6 -6 -5 -85 20 -36 36 73 17 110 -38 337
-81 337 -6 0 -11 6 -11 13 0 46 -38 33 -46 -16 -8 -52 -8 -52 -14 16 -8 82
-34 123 -75 120 -22 -2 -24 1 -15 12 15 18 -62 42 -176 55 -79 9 -79 9 21 6
55 -2 108 -6 118 -11 13 -5 17 -2 17 13 0 44 -105 105 -228 133 -93 20 -500
44 -562 33z m58 -49 c-3 -3 -16 -8 -29 -10 -141 -26 -317 -191 -321 -301 -1
-19 -5 -37 -10 -40 -13 -8 -9 48 6 99 8 26 12 47 9 47 -18 0 100 116 144 141
72 41 228 91 201 64z m613 -385 c-104 -89 -382 -164 -377 -102 1 14 -10 18
-64 23 -65 6 -65 6 6 7 39 1 87 4 105 7 34 5 34 5 -4 -8 -33 -11 -37 -15 -24
-25 31 -26 261 42 347 103 47 33 52 31 11 -5z m144 -72 c-40 -77 -117 -145
-185 -162 -18 -5 -15 -1 11 13 51 28 130 102 159 149 30 48 39 48 15 0z m121
-70 c-9 -53 -49 -128 -89 -165 -30 -28 -30 -28 1 12 31 40 82 151 82 180 0 8
3 15 6 15 4 0 4 -19 0 -42z m-671 -39 c29 -13 61 -20 85 -17 21 2 36 0 34 -4
-3 -5 -13 -8 -22 -8 -15 -1 -14 -3 3 -16 20 -16 113 -16 160 0 11 3 4 -1 -15
-10 -45 -20 -44 -19 -31 -43 25 -46 95 -60 176 -36 11 3 5 -2 -12 -11 -40 -22
-41 -28 -3 -65 21 -21 36 -29 49 -24 16 5 20 0 23 -27 3 -30 6 -33 35 -33 28
0 31 -3 27 -21 -7 -28 19 -48 53 -39 23 5 25 4 14 -9 -7 -8 -10 -20 -6 -26 3
-5 1 -10 -4 -10 -6 0 -11 5 -11 10 0 6 -5 10 -12 10 -19 0 -48 31 -48 52 0 13
-7 18 -26 18 -19 0 -28 7 -36 28 -7 17 -23 33 -40 40 -15 5 -36 24 -45 41 -13
22 -28 32 -55 36 -43 8 -84 36 -93 65 -5 15 -15 20 -44 20 -23 0 -48 8 -63 19
-19 15 -39 19 -98 18 -70 -1 -175 32 -157 49 3 3 19 -2 36 -10 32 -17 121 -33
121 -23 0 4 -17 15 -37 26 -51 27 -18 27 42 0z m723 -69 c-11 -63 -52 -152
-81 -177 -15 -14 -14 -8 6 22 25 36 56 120 72 189 11 50 14 23 3 -34z m-748
-68 c-15 -5 -110 28 -110 38 0 5 27 -1 60 -13 33 -12 55 -23 50 -25z"/>
<path d="M2705 3165 c0 -70 1 -72 31 -51 16 13 17 18 7 35 -7 12 -13 27 -13
34 0 7 -6 21 -12 30 -11 15 -13 7 -13 -48z"/>
<path d="M2060 2852 c0 -23 490 -264 497 -244 3 6 0 12 -6 12 -6 0 -119 54
-251 120 -132 66 -240 116 -240 112z"/>
<path d="M2201 2433 c-6 -12 -11 -27 -11 -33 0 -6 -14 -23 -31 -37 -18 -15
-28 -32 -25 -40 8 -19 -4 -39 -13 -24 -5 7 -23 0 -54 -22 -75 -54 -41 -73 40
-23 123 76 164 132 129 172 -23 28 -23 28 -35 7z"/>
</g>
</svg>
