<?xml version="1.0" standalone="no"?>
<!DOCTYPE svg PUBLIC "-//W3C//DTD SVG 20010904//EN"
 "http://www.w3.org/TR/2001/REC-SVG-20010904/DTD/svg10.dtd">
<svg version="1.0" xmlns="http://www.w3.org/2000/svg"
 width="444.330709pt" height="444.330709pt" viewBox="0 0 444.330709 444.330709"
 preserveAspectRatio="xMidYMid meet">
<metadata>
Created by potrace 1.16, written by Peter Selinger 2001-2019
</metadata>
<g transform="translate(0.000000,444.330709) scale(0.079345,-0.079345)"
fill="#000000" stroke="none">
<path d="M3893 5415 c-64 -19 -129 -61 -163 -104 -24 -30 -36 -37 -56 -33 -30
5 -53 -13 -71 -55 -15 -38 -30 -41 -75 -13 -62 38 -158 61 -268 65 -58 2 -141
12 -185 21 -404 84 -784 -214 -644 -504 22 -44 22 -44 0 -90 -52 -113 -63
-225 -35 -348 21 -89 18 -96 -54 -133 -101 -51 -108 -142 -15 -186 38 -18 42
-23 43 -57 0 -42 19 -58 68 -58 50 0 123 -103 93 -133 -17 -17 -13 -55 9 -77
11 -11 20 -24 20 -29 0 -53 120 -76 218 -42 90 31 57 7 -88 -62 -77 -37 -144
-76 -149 -86 -19 -35 -108 -64 -206 -67 -51 -1 -157 -15 -245 -33 -191 -38
-178 -38 -280 5 -183 77 -295 46 -364 -100 -14 -30 -32 -56 -40 -59 -74 -28
-18 -177 66 -177 13 0 44 -11 70 -25 26 -14 52 -25 58 -25 7 0 24 -9 38 -21
20 -16 38 -20 82 -18 36 2 66 -3 87 -14 18 -9 39 -17 48 -17 13 0 71 -25 83
-35 2 -2 -19 -32 -46 -67 -27 -34 -87 -119 -132 -188 -183 -275 -187 -281
-226 -258 -38 23 -82 18 -109 -12 -13 -15 -23 -16 -47 -9 -17 5 -41 6 -52 3
-12 -3 -46 6 -76 20 -259 121 -337 -114 -117 -350 69 -74 69 -74 27 -74 -66 0
-104 -44 -98 -112 10 -95 -62 -88 839 -88 l789 0 0 -674 c0 -674 0 -674 53
-777 74 -146 88 -147 157 -10 50 101 50 101 50 781 l0 680 434 0 c433 0 433 0
522 -53 492 -295 482 -294 625 -41 160 286 160 288 -110 420 -500 245 -487
239 -574 238 -78 -1 -78 -1 -72 50 4 28 15 60 25 71 42 48 51 95 26 143 -10
20 -15 91 -19 267 -8 394 -60 607 -191 783 -26 35 -53 65 -61 68 -8 4 -15 17
-15 31 0 27 -41 73 -64 73 -45 0 -36 38 18 78 116 88 209 190 358 394 81 110
113 324 66 446 -15 40 -15 43 0 37 41 -17 87 -26 108 -22 21 4 24 0 24 -29 0
-102 170 1 196 119 5 25 8 28 16 14 17 -31 57 -21 74 18 31 76 -7 230 -67 268
-32 20 -21 29 28 25 40 -2 48 0 51 15 11 54 -147 146 -250 147 -33 0 -34 4 -7
31 55 55 -78 92 -198 54z m157 -31 c0 -13 -75 -89 -100 -101 -25 -13 -25 -13
0 -5 71 21 203 8 273 -26 63 -31 90 -56 48 -45 -11 3 -45 -2 -76 -11 -30 -9
-60 -14 -65 -11 -6 3 -10 4 -10 1 0 -4 18 -13 40 -22 83 -33 148 -133 144
-222 -2 -61 -4 -61 -85 23 -41 42 -83 81 -94 87 -11 6 -3 -5 18 -25 88 -82 82
-224 -12 -280 -33 -19 -45 -22 -36 -7 11 18 -14 104 -40 135 -23 30 -23 30
-19 -15 7 -66 -3 -76 -60 -60 -74 21 -119 66 -122 124 -1 27 -6 51 -12 55 -59
36 -45 106 32 162 21 16 34 29 29 29 -15 0 -86 -50 -101 -71 -15 -21 -100 31
-101 61 -2 75 93 176 200 214 43 15 149 22 149 10z m-975 -130 c39 -8 117 -17
175 -18 146 -4 253 -43 345 -125 16 -14 23 -18 16 -9 -34 46 55 54 112 11 64
-50 127 -175 110 -222 -9 -22 -17 -16 -112 84 -44 46 -76 71 -97 72 -105 10
-213 11 -139 2 92 -11 178 -36 169 -50 -3 -5 3 -9 14 -9 42 0 67 -46 67 -125
0 -82 11 -90 21 -15 9 66 39 48 90 -54 60 -123 69 -277 21 -386 -15 -35 -15
-35 -11 20 4 55 4 55 -10 -6 -14 -62 -57 -157 -76 -169 -6 -3 -36 -41 -67 -83
-102 -139 -286 -298 -309 -268 -18 25 -28 19 -12 -6 44 -69 34 -85 -60 -91
-95 -6 -225 -42 -307 -86 -27 -14 -53 -27 -57 -29 -25 -11 -2 39 35 76 42 44
42 44 -26 1 -156 -97 -367 -138 -367 -72 0 5 -9 18 -20 28 -30 27 -25 38 32
65 70 34 108 102 108 196 0 56 2 63 18 58 12 -4 10 0 -7 15 -23 21 -68 30 -56
11 16 -26 -173 -113 -234 -108 -36 3 -36 3 -33 46 3 34 1 42 -13 42 -101 0
-115 100 -21 145 72 34 85 64 66 149 -30 133 -21 234 31 345 29 64 29 64 2
120 -129 263 230 528 602 445z m595 -43 c0 -11 3 -27 7 -36 5 -14 2 -16 -18
-10 -32 10 -31 8 -20 39 12 30 31 35 31 7z m-970 -1187 c0 -56 -166 -138 -190
-95 -9 17 -1 23 70 57 44 20 85 43 91 51 18 21 29 15 29 -13z m-20 -146 c-15
-28 -61 -78 -72 -78 -20 0 -4 36 32 73 43 42 60 45 40 5z m763 -87 c44 -11 42
-9 51 -37 6 -20 4 -21 -122 -16 -81 3 -148 0 -183 -8 -63 -14 -159 -28 -159
-24 0 41 320 106 413 85z m4 -72 c187 -33 310 -367 319 -861 4 -185 8 -245 20
-274 67 -161 -125 -146 -668 51 -272 99 -322 127 -287 162 7 7 5 30 -10 79
-27 95 -33 154 -15 154 7 0 53 18 100 40 48 22 95 40 106 40 21 0 150 92 188
135 25 29 25 29 -8 6 -30 -21 -373 -191 -385 -191 -3 0 -13 24 -22 53 -25 77
-121 255 -168 311 -44 53 -40 68 23 83 14 3 88 39 165 79 158 83 241 109 318
100 41 -5 47 -4 28 4 -68 29 164 52 296 29z m-827 -329 c52 -76 143 -262 133
-271 -16 -15 -191 -68 -264 -80 -130 -21 -519 39 -519 80 0 11 -4 10 -14 -5
-14 -19 -15 -19 -38 3 -89 84 -243 30 -192 -68 25 -48 -31 -56 -76 -10 -16 16
-31 24 -33 18 -6 -18 -48 4 -68 36 -14 25 -19 27 -19 13 0 -18 -2 -18 -25 4
-59 55 -53 148 12 221 74 82 138 88 284 25 100 -44 101 -44 286 -5 94 19 186
32 253 34 92 3 113 7 170 34 36 16 66 30 67 31 1 0 20 -27 43 -60z m-1180
-204 c0 -14 5 -37 10 -52 13 -33 8 -39 -19 -24 -21 11 -28 50 -15 84 9 24 24
19 24 -8z m435 -59 c81 -46 39 -166 -48 -138 -87 29 -116 96 -61 140 34 27 59
26 109 -2z m274 -147 c111 -55 204 -100 205 -100 2 0 268 -131 590 -290 586
-290 586 -290 561 -340 -33 -64 41 -93 -652 253 -335 167 -686 340 -781 385
-173 83 -173 83 -152 109 11 14 20 39 20 54 0 36 -25 45 209 -71z m582 57 c9
-7 20 -33 24 -57 3 -25 13 -71 21 -104 20 -79 28 -80 -177 20 -181 89 -181 89
-120 97 33 4 93 18 133 31 86 28 98 29 119 13z m-324 -98 c91 -40 215 -102
231 -115 2 -1 -1 -11 -6 -21 -9 -16 -412 163 -446 198 -21 21 128 -20 221 -62z
m-131 -185 c154 -75 281 -138 283 -140 5 -5 -108 -259 -125 -282 -12 -15 -25
-5 -120 88 -59 58 -108 100 -111 93 -29 -79 -110 -164 -291 -306 -61 -48 -125
-105 -142 -127 -52 -65 -158 -47 -175 30 -4 16 -17 45 -30 64 -21 30 -22 36
-9 47 9 7 14 25 13 44 -3 24 10 49 57 115 33 47 91 132 129 190 117 178 224
320 241 320 1 0 127 -61 280 -136z m452 34 c161 -89 402 -241 402 -254 0 -2
-108 50 -240 116 -235 118 -261 136 -233 163 9 10 7 10 71 -25z m442 -198
c196 -72 301 -103 448 -130 122 -23 123 -23 117 -58 -2 -15 -7 -43 -10 -63 -7
-48 -37 -56 -97 -29 -23 11 -55 20 -71 20 -34 0 -402 183 -410 204 -3 8 -32
33 -64 57 -96 70 -104 70 87 -1z m-564 -5 c4 -8 13 -15 22 -15 18 0 167 -75
201 -101 13 -11 30 -19 37 -19 28 0 587 -285 591 -302 3 -9 25 -27 49 -40 174
-91 -139 -177 -512 -140 -101 10 -194 48 -329 136 -38 25 -77 46 -85 46 -8 0
-28 13 -45 28 -25 24 -32 26 -40 15 -9 -13 -17 -11 -48 7 -46 28 -48 16 26
167 34 70 72 152 84 181 22 52 39 65 49 37z m-351 -173 c3 -7 1 -22 -5 -31 -5
-10 -7 -21 -3 -24 19 -19 -66 -93 -194 -171 -35 -21 -63 -40 -63 -43 0 -2 17
5 38 18 109 65 177 116 215 160 42 49 42 49 89 2 41 -40 45 -49 37 -70 -15
-39 2 -55 176 -172 112 -75 158 -111 143 -111 -674 -8 -859 -5 -854 15 3 11 6
27 6 36 0 9 31 38 70 65 39 26 70 49 70 51 0 6 -18 -5 -87 -54 -65 -45 -78
-50 -89 -32 -9 16 56 79 166 161 109 81 192 159 221 205 21 33 50 31 64 -5z
m-1010 -58 c30 -15 58 -31 61 -36 3 -5 12 -1 19 8 24 33 88 -2 96 -51 6 -40 6
-40 8 6 1 55 35 95 70 84 41 -13 67 -119 36 -145 -13 -10 -11 -16 9 -44 13
-17 29 -50 35 -73 13 -48 69 -83 134 -83 40 0 44 -6 23 -36 -13 -18 -30 -19
-238 -22 -223 -3 -223 -3 -310 82 -113 112 -173 224 -152 281 5 13 8 14 15 3
7 -10 9 -9 9 4 0 51 99 63 185 22z m2375 -69 c49 -25 49 -25 132 -5 136 33
139 31 606 -199 286 -142 283 -132 125 -399 -99 -169 -120 -179 -242 -108 -42
24 -98 56 -126 71 -378 205 -507 302 -527 396 -11 56 -16 63 -56 86 -50 30
-50 36 -2 126 37 67 28 63 90 32z m-1810 -271 c0 -15 -22 -44 -34 -44 -9 0
-12 8 -8 25 4 21 42 39 42 19z m1760 -34 c0 -5 -7 -10 -16 -10 -8 0 -12 5 -9
10 3 6 10 10 16 10 5 0 9 -4 9 -10z m33 -63 c8 -13 48 -44 88 -68 73 -44 73
-44 -344 -47 l-417 -2 0 -684 c0 -684 0 -684 -45 -780 -57 -124 -67 -125 -123
-8 -43 87 -43 87 -45 777 l-2 690 -799 3 c-570 1 -803 5 -813 13 -16 14 -17
101 -1 117 27 27 2483 16 2501 -11z"/>
<path d="M2734 5130 c-116 -58 -186 -148 -198 -255 -6 -50 -6 -50 8 -4 35 122
107 207 219 259 34 17 55 30 46 30 -9 0 -42 -13 -75 -30z"/>
<path d="M2916 5045 c-123 -34 -229 -106 -276 -188 -16 -28 -39 -57 -52 -65
-18 -10 -19 -12 -3 -7 106 35 323 -19 302 -76 -8 -20 -8 -32 -1 -39 8 -8 11
-3 12 17 0 15 1 37 3 47 3 15 -8 24 -51 42 -75 30 -53 40 165 69 100 13 283
60 273 71 -2 2 -20 -1 -39 -6 -19 -6 -104 -22 -189 -36 -85 -13 -189 -36 -230
-49 -70 -23 -127 -25 -114 -4 7 13 1 11 -32 -6 -76 -39 -71 0 9 79 67 67 168
124 267 150 30 8 44 15 30 14 -14 0 -47 -6 -74 -13z"/>
<path d="M3465 4774 c-60 -36 -140 -64 -240 -84 -70 -14 -81 -19 -49 -19 98
-2 229 41 313 103 43 32 29 32 -24 0z"/>
<path d="M3652 4735 c-18 -39 -101 -124 -150 -152 -23 -14 -41 -28 -38 -31 10
-9 118 63 146 98 31 39 64 100 57 106 -2 2 -9 -7 -15 -21z"/>
<path d="M3068 4713 c17 -2 47 -2 65 0 17 2 3 4 -33 4 -36 0 -50 -2 -32 -4z"/>
<path d="M3757 4627 c-10 -31 -33 -80 -52 -109 -35 -53 -35 -53 0 -14 35 40
78 136 73 165 -2 8 -11 -10 -21 -42z"/>
<path d="M3045 4620 c3 -5 12 -10 19 -10 8 0 19 -7 26 -15 19 -23 -44 -19 -99
5 -57 26 -62 20 -9 -10 35 -20 55 -23 117 -22 56 1 79 -3 93 -14 9 -9 36 -19
60 -21 34 -4 47 -12 63 -37 15 -23 34 -35 71 -45 37 -11 55 -23 67 -44 10 -16
30 -34 45 -39 17 -7 33 -23 40 -40 7 -20 17 -28 34 -27 23 0 23 0 1 9 -17 7
-23 18 -23 38 0 25 -3 29 -23 25 -43 -8 -94 66 -56 83 15 7 3 9 -44 9 -83 0
-162 62 -99 78 9 2 -11 4 -44 4 -68 -1 -114 20 -77 34 13 5 7 8 -19 8 -21 1
-60 10 -88 21 -58 23 -64 24 -55 10z"/>
<path d="M2539 4550 c-39 -20 -52 -41 -43 -65 8 -19 7 -19 51 5 47 25 79 25
121 0 33 -20 33 -20 17 9 -34 67 -83 84 -146 51z"/>
<path d="M2860 4557 c0 -30 26 -70 70 -106 23 -18 46 -43 51 -55 8 -19 9 -18
6 7 -3 15 1 27 7 27 6 0 -2 7 -19 16 -42 22 -85 64 -101 99 -9 20 -13 24 -14
12z"/>
<path d="M3821 4558 c-2 -33 -33 -113 -62 -160 -36 -60 -30 -63 9 -5 33 48 66
139 59 164 -4 16 -5 17 -6 1z"/>
<path d="M3143 4388 c-32 -22 -48 -46 -39 -55 3 -3 17 7 32 21 54 49 125 46
173 -9 92 -106 3 -304 -138 -305 -43 -1 -45 -1 -26 -16 19 -15 58 -14 95 0 11
5 19 -3 27 -24 11 -30 45 -42 58 -20 4 6 -3 9 -16 7 -41 -4 -43 46 -4 88 152
160 10 433 -162 313z"/>
<path d="M2559 4368 c-16 -30 -16 -128 1 -167 29 -70 90 -21 90 72 0 95 -59
156 -91 95z"/>
<path d="M3067 4291 c-19 -46 -47 -67 -67 -48 -10 9 -12 9 -8 -3 11 -35 52
-17 76 34 13 26 21 50 19 52 -3 3 -12 -13 -20 -35z"/>
<path d="M3177 4285 c-38 -39 -41 -62 -6 -61 24 1 26 3 13 17 -17 19 15 54 56
62 22 4 21 4 -6 6 -21 1 -39 -7 -57 -24z"/>
<path d="M3601 4298 c-4 -48 55 -92 78 -57 11 19 10 19 -9 9 -25 -14 -56 8
-63 44 -3 13 -5 15 -6 4z"/>
<path d="M1740 2497 c0 -13 98 -114 165 -169 l60 -50 -60 55 c-33 31 -84 82
-112 114 -29 32 -53 54 -53 50z"/>
<path d="M1065 2290 c13 -50 72 -136 140 -205 39 -39 54 -53 34 -31 -69 79
-111 136 -145 198 -19 35 -32 52 -29 38z"/>
</g>
</svg>
